<?xml version="1.0" standalone="no"?>
<!DOCTYPE svg PUBLIC "-//W3C//DTD SVG 1.1//EN" "http://www.w3.org/Graphics/SVG/1.1/DTD/svg11.dtd" >
<svg xmlns="http://www.w3.org/2000/svg">
<metadata>
<json>
<![CDATA[
{
	"fontFamily": "icon54com",
	"majorVersion": 1,
	"minorVersion": 0,
	"version": "Version 1.0",
	"fontId": "icon54com",
	"psName": "icon54com",
	"subFamily": "Regular",
	"fullName": "icon54com",
	"description": "Font generated by IcoMoon."
}
]]>
</json>
</metadata>
<defs>
<font id="icon54com" horiz-adv-x="1024">
<font-face units-per-em="1024" ascent="960" descent="-64" />
<missing-glyph horiz-adv-x="1024" />
<glyph unicode="&#x20;" horiz-adv-x="512" d="" />
<glyph unicode="&#xe900;" glyph-name="Add-Bag" data-tags="Add-Bag" d="M512 554.667c-128 0-234.667-106.667-234.667-234.667s106.667-234.667 234.667-234.667 234.667 106.667 234.667 234.667-106.667 234.667-234.667 234.667zM597.333 298.667h-64v-64c0-12.8-8.533-21.333-21.333-21.333s-21.333 8.533-21.333 21.333v64h-64c-12.8 0-21.333 8.533-21.333 21.333s8.533 21.333 21.333 21.333h64v64c0 12.8 8.533 21.333 21.333 21.333s21.333-8.533 21.333-21.333v-64h64c12.8 0 21.333-8.533 21.333-21.333s-8.533-21.333-21.333-21.333zM981.333 682.667h-192v106.667c0 81.067-68.267 149.333-149.333 149.333h-256c-81.067 0-149.333-68.267-149.333-149.333v-106.667h-192c-12.8 0-21.333-8.533-21.333-21.333v-682.667c0-12.8 8.533-21.333 21.333-21.333h938.667c12.8 0 21.333 8.533 21.333 21.333v682.667c0 12.8-8.533 21.333-21.333 21.333zM277.333 789.333c0 59.733 46.933 106.667 106.667 106.667h256c59.733 0 106.667-46.933 106.667-106.667v-213.333c0-12.8-8.533-21.333-21.333-21.333s-21.333 8.533-21.333 21.333v106.667h-384v-106.667c0-12.8-8.533-21.333-21.333-21.333s-21.333 8.533-21.333 21.333v213.333zM512 42.667c-153.6 0-277.333 123.733-277.333 277.333s123.733 277.333 277.333 277.333 277.333-123.733 277.333-277.333-123.733-277.333-277.333-277.333z" />
<glyph unicode="&#xe901;" glyph-name="Add-Cart" data-tags="Add-Cart" d="M896 42.667c0-58.91-47.756-106.667-106.667-106.667s-106.667 47.756-106.667 106.667c0 58.91 47.756 106.667 106.667 106.667s106.667-47.756 106.667-106.667zM469.333 42.667c0-58.91-47.756-106.667-106.667-106.667s-106.667 47.756-106.667 106.667c0 58.91 47.756 106.667 106.667 106.667s106.667-47.756 106.667-106.667zM921.6 482.133c-38.4-21.333-85.333-34.133-132.267-34.133-153.6 0-277.333 123.733-277.333 277.333 0 12.8-8.533 21.333-21.333 21.333h-298.667l-21.333 110.933c-4.267 8.533-12.8 17.067-21.333 17.067h-128c-12.8 0-21.333-8.533-21.333-21.333s8.533-21.333 21.333-21.333h110.933l102.4-520.533c17.067-68.267 76.8-119.467 149.333-119.467h490.667c12.8 0 21.333 8.533 21.333 21.333s-8.533 21.333-21.333 21.333h-490.667c-34.133 0-68.267 17.067-85.333 46.933l622.933 85.333c8.533 0 17.067 8.533 17.067 17.067l12.8 81.067c0 8.533 0 17.067-8.533 21.333-4.267 0-12.8 0-21.333-4.267zM789.333 960c-128 0-234.667-106.667-234.667-234.667s106.667-234.667 234.667-234.667 234.667 106.667 234.667 234.667-106.667 234.667-234.667 234.667zM874.667 704h-64v-64c0-12.8-8.533-21.333-21.333-21.333s-21.333 8.533-21.333 21.333v64h-64c-12.8 0-21.333 8.533-21.333 21.333s8.533 21.333 21.333 21.333h64v64c0 12.8 8.533 21.333 21.333 21.333s21.333-8.533 21.333-21.333v-64h64c12.8 0 21.333-8.533 21.333-21.333s-8.533-21.333-21.333-21.333z" />
<glyph unicode="&#xe902;" glyph-name="Bitcoin-Bag" data-tags="Bitcoin-Bag" d="M512 554.667c-128 0-234.667-106.667-234.667-234.667s106.667-234.667 234.667-234.667 234.667 106.667 234.667 234.667-106.667 234.667-234.667 234.667zM618.667 277.333c0-29.867-17.067-51.2-42.667-59.733v-25.6c0-12.8-8.533-21.333-21.333-21.333s-21.333 8.533-21.333 21.333v21.333h-42.667v-21.333c0-12.8-8.533-21.333-21.333-21.333s-21.333 8.533-21.333 21.333v21.333h-21.333c-12.8 0-21.333 8.533-21.333 21.333v170.667c0 12.8 8.533 21.333 21.333 21.333h21.333v21.333c0 12.8 8.533 21.333 21.333 21.333s21.333-8.533 21.333-21.333v-21.333h42.667v21.333c0 12.8 8.533 21.333 21.333 21.333s21.333-8.533 21.333-21.333v-25.6c25.6-8.533 42.667-34.133 42.667-59.733 0-17.067-4.267-29.867-17.067-42.667 12.8-12.8 17.067-25.6 17.067-42.667zM554.667 298.667h-106.667v-42.667h106.667c12.8 0 21.333 8.533 21.333 21.333s-8.533 21.333-21.333 21.333zM981.333 682.667h-192v106.667c0 81.067-68.267 149.333-149.333 149.333h-256c-81.067 0-149.333-68.267-149.333-149.333v-106.667h-192c-12.8 0-21.333-8.533-21.333-21.333v-682.667c0-12.8 8.533-21.333 21.333-21.333h938.667c12.8 0 21.333 8.533 21.333 21.333v682.667c0 12.8-8.533 21.333-21.333 21.333zM277.333 789.333c0 59.733 46.933 106.667 106.667 106.667h256c59.733 0 106.667-46.933 106.667-106.667v-213.333c0-12.8-8.533-21.333-21.333-21.333s-21.333 8.533-21.333 21.333v106.667h-384v-106.667c0-12.8-8.533-21.333-21.333-21.333s-21.333 8.533-21.333 21.333v213.333zM512 42.667c-153.6 0-277.333 123.733-277.333 277.333s123.733 277.333 277.333 277.333 277.333-123.733 277.333-277.333-123.733-277.333-277.333-277.333zM554.667 384h-106.667v-42.667h106.667c12.8 0 21.333 8.533 21.333 21.333s-8.533 21.333-21.333 21.333z" />
<glyph unicode="&#xe903;" glyph-name="Bitcoin-Cart" data-tags="Bitcoin-Cart" d="M921.6 482.133c-38.4-21.333-85.333-34.133-132.267-34.133-153.6 0-277.333 123.733-277.333 277.333 0 12.8-8.533 21.333-21.333 21.333h-298.667l-21.333 110.933c-4.267 8.533-12.8 17.067-21.333 17.067h-128c-12.8 0-21.333-8.533-21.333-21.333s8.533-21.333 21.333-21.333h110.933l102.4-520.533c17.067-68.267 76.8-119.467 149.333-119.467h490.667c12.8 0 21.333 8.533 21.333 21.333s-8.533 21.333-21.333 21.333h-490.667c-34.133 0-68.267 17.067-85.333 46.933l622.933 85.333c8.533 0 17.067 8.533 17.067 17.067l12.8 81.067c0 8.533 0 17.067-8.533 21.333-4.267 0-12.8 0-21.333-4.267zM896 42.667c0-58.91-47.756-106.667-106.667-106.667s-106.667 47.756-106.667 106.667c0 58.91 47.756 106.667 106.667 106.667s106.667-47.756 106.667-106.667zM789.333 960c-128 0-234.667-106.667-234.667-234.667s106.667-234.667 234.667-234.667 234.667 106.667 234.667 234.667-106.667 234.667-234.667 234.667zM896 682.667c0-29.867-17.067-51.2-42.667-59.733v-25.6c0-12.8-8.533-21.333-21.333-21.333s-21.333 8.533-21.333 21.333v21.333h-42.667v-21.333c0-12.8-8.533-21.333-21.333-21.333s-21.333 8.533-21.333 21.333v21.333h-21.333c-12.8 0-21.333 8.533-21.333 21.333v170.667c0 12.8 8.533 21.333 21.333 21.333h21.333v21.333c0 12.8 8.533 21.333 21.333 21.333s21.333-8.533 21.333-21.333v-21.333h42.667v21.333c0 12.8 8.533 21.333 21.333 21.333s21.333-8.533 21.333-21.333v-25.6c25.6-8.533 42.667-34.133 42.667-59.733 0-17.067-4.267-29.867-17.067-42.667 12.8-12.8 17.067-25.6 17.067-42.667zM469.333 42.667c0-58.91-47.756-106.667-106.667-106.667s-106.667 47.756-106.667 106.667c0 58.91 47.756 106.667 106.667 106.667s106.667-47.756 106.667-106.667zM832 789.333h-106.667v-42.667h106.667c12.8 0 21.333 8.533 21.333 21.333s-8.533 21.333-21.333 21.333zM832 704h-106.667v-42.667h106.667c12.8 0 21.333 8.533 21.333 21.333s-8.533 21.333-21.333 21.333z" />
<glyph unicode="&#xe904;" glyph-name="Cart" data-tags="Cart" d="M469.333 85.333c0-58.91-47.756-106.667-106.667-106.667s-106.667 47.756-106.667 106.667c0 58.91 47.756 106.667 106.667 106.667s106.667-47.756 106.667-106.667zM1019.733 780.8c-4.267 4.267-8.533 8.533-17.067 8.533h-810.667l-21.333 110.933c-4.267 8.533-12.8 17.067-21.333 17.067h-128c-12.8 0-21.333-8.533-21.333-21.333s8.533-21.333 21.333-21.333h110.933l102.4-520.533c17.067-68.267 76.8-119.467 149.333-119.467h490.667c12.8 0 21.333 8.533 21.333 21.333s-8.533 21.333-21.333 21.333h-490.667c-34.133 0-68.267 17.067-85.333 46.933l622.933 85.333c8.533 0 17.067 8.533 17.067 17.067l85.333 341.333c0 0 0 8.533-4.267 12.8zM896 85.333c0-58.91-47.756-106.667-106.667-106.667s-106.667 47.756-106.667 106.667c0 58.91 47.756 106.667 106.667 106.667s106.667-47.756 106.667-106.667z" />
<glyph unicode="&#xe905;" glyph-name="Check-Out" data-tags="Check-Out" d="M384 576c0-17.067 12.8-29.867 42.667-38.4v76.8c-25.6-4.267-42.667-21.333-42.667-38.4zM1002.667 704h-42.667c-12.8 0-21.333-8.533-21.333-21.333v-469.333c0-34.133-29.867-64-64-64h-725.333c-12.8 0-21.333-8.533-21.333-21.333v-42.667c0-12.8 8.533-21.333 21.333-21.333h853.333c12.8 0 21.333 8.533 21.333 21.333v597.333c0 12.8-8.533 21.333-21.333 21.333zM896 213.333v597.333c0 12.8-8.533 21.333-21.333 21.333h-853.333c-12.8 0-21.333-8.533-21.333-21.333v-597.333c0-12.8 8.533-21.333 21.333-21.333h853.333c12.8 0 21.333 8.533 21.333 21.333zM192 277.333h-85.333c-12.8 0-21.333 8.533-21.333 21.333s8.533 21.333 21.333 21.333h85.333c12.8 0 21.333-8.533 21.333-21.333s-8.533-21.333-21.333-21.333zM469.333 362.667v-21.333c0-12.8-8.533-21.333-21.333-21.333s-21.333 8.533-21.333 21.333v21.333c-46.933 8.533-81.067 38.4-85.333 76.8 0 12.8 8.533 21.333 21.333 21.333 8.533 0 21.333-8.533 21.333-21.333 0-17.067 21.333-34.133 42.667-38.4v85.333c-55.467 12.8-85.333 42.667-85.333 81.067 0 42.667 38.4 76.8 85.333 85.333v29.867c0 12.8 8.533 21.333 21.333 21.333s21.333-8.533 21.333-21.333v-21.333c46.933-8.533 81.067-38.4 85.333-76.8 0-12.8-8.533-21.333-21.333-21.333s-21.333 8.533-21.333 21.333c0 17.067-21.333 34.133-42.667 38.4v-85.333c55.467-12.8 85.333-42.667 85.333-81.067 0-51.2-38.4-85.333-85.333-93.867zM789.333 704h-85.333c-12.8 0-21.333 8.533-21.333 21.333s8.533 21.333 21.333 21.333h85.333c12.8 0 21.333-8.533 21.333-21.333s-8.533-21.333-21.333-21.333zM469.333 486.4v-76.8c25.6 4.267 42.667 21.333 42.667 38.4s-12.8 29.867-42.667 38.4z" />
<glyph unicode="&#xe906;" glyph-name="Clear-Bag" data-tags="Clear-Bag" d="M512 554.667c-128 0-234.667-106.667-234.667-234.667s106.667-234.667 234.667-234.667 234.667 106.667 234.667 234.667-106.667 234.667-234.667 234.667zM614.4 217.6c-4.267-4.267-8.533-4.267-17.067-4.267s-12.8 0-17.067 4.267l-68.267 72.533-68.267-68.267c-4.267-4.267-8.533-4.267-17.067-4.267s-12.8 0-17.067 4.267c-8.533 8.533-8.533 21.333 0 29.867l68.267 68.267-68.267 68.267c-8.533 8.533-8.533 21.333 0 29.867s21.333 8.533 29.867 0l68.267-68.267 68.267 68.267c8.533 8.533 21.333 8.533 29.867 0s8.533-21.333 0-29.867l-64-68.267 68.267-68.267c8.533-8.533 8.533-25.6 4.267-34.133zM981.333 682.667h-192v106.667c0 81.067-68.267 149.333-149.333 149.333h-256c-81.067 0-149.333-68.267-149.333-149.333v-106.667h-192c-12.8 0-21.333-8.533-21.333-21.333v-682.667c0-12.8 8.533-21.333 21.333-21.333h938.667c12.8 0 21.333 8.533 21.333 21.333v682.667c0 12.8-8.533 21.333-21.333 21.333zM277.333 789.333c0 59.733 46.933 106.667 106.667 106.667h256c59.733 0 106.667-46.933 106.667-106.667v-213.333c0-12.8-8.533-21.333-21.333-21.333s-21.333 8.533-21.333 21.333v106.667h-384v-106.667c0-12.8-8.533-21.333-21.333-21.333s-21.333 8.533-21.333 21.333v213.333zM512 42.667c-153.6 0-277.333 123.733-277.333 277.333s123.733 277.333 277.333 277.333 277.333-123.733 277.333-277.333-123.733-277.333-277.333-277.333z" />
<glyph unicode="&#xe907;" glyph-name="Clear-Cart" data-tags="Clear-Cart" d="M896 42.667c0-58.91-47.756-106.667-106.667-106.667s-106.667 47.756-106.667 106.667c0 58.91 47.756 106.667 106.667 106.667s106.667-47.756 106.667-106.667zM469.333 42.667c0-58.91-47.756-106.667-106.667-106.667s-106.667 47.756-106.667 106.667c0 58.91 47.756 106.667 106.667 106.667s106.667-47.756 106.667-106.667zM921.6 482.133c-38.4-21.333-85.333-34.133-132.267-34.133-153.6 0-277.333 123.733-277.333 277.333 0 12.8-8.533 21.333-21.333 21.333h-298.667l-21.333 110.933c-4.267 8.533-12.8 17.067-21.333 17.067h-128c-12.8 0-21.333-8.533-21.333-21.333s8.533-21.333 21.333-21.333h110.933l102.4-520.533c17.067-68.267 76.8-119.467 149.333-119.467h490.667c12.8 0 21.333 8.533 21.333 21.333s-8.533 21.333-21.333 21.333h-490.667c-34.133 0-68.267 17.067-85.333 46.933l622.933 85.333c8.533 0 17.067 8.533 17.067 17.067l12.8 81.067c0 8.533 0 17.067-8.533 21.333-4.267 0-12.8 0-21.333-4.267zM789.333 960c-128 0-234.667-106.667-234.667-234.667s106.667-234.667 234.667-234.667 234.667 106.667 234.667 234.667-106.667 234.667-234.667 234.667zM891.733 622.933c-4.267-4.267-12.8-4.267-17.067-4.267s-12.8 0-17.067 4.267l-68.267 68.267-68.267-68.267c-4.267-4.267-12.8-4.267-17.067-4.267s-12.8 0-17.067 4.267c-8.533 8.533-8.533 21.333 0 29.867l68.267 68.267-68.267 68.267c-8.533 8.533-8.533 21.333 0 29.867s21.333 8.533 29.867 0l68.267-68.267 68.267 68.267c8.533 8.533 21.333 8.533 29.867 0s8.533-21.333 0-29.867l-68.267-68.267 68.267-68.267c12.8-4.267 12.8-21.333 8.533-29.867z" />
<glyph unicode="&#xe908;" glyph-name="Credit-Card" data-tags="Credit-Card" d="M1002.667 533.333h-981.333c-12.8 0-21.333-8.533-21.333-21.333v-298.667c0-59.733 46.933-106.667 106.667-106.667h810.667c59.733 0 106.667 46.933 106.667 106.667v298.667c0 12.8-8.533 21.333-21.333 21.333zM149.333 362.667h170.667c12.8 0 21.333-8.533 21.333-21.333s-8.533-21.333-21.333-21.333h-170.667c-12.8 0-21.333 8.533-21.333 21.333s8.533 21.333 21.333 21.333zM448 234.667h-298.667c-12.8 0-21.333 8.533-21.333 21.333s8.533 21.333 21.333 21.333h298.667c12.8 0 21.333-8.533 21.333-21.333s-8.533-21.333-21.333-21.333zM810.667 234.667c-17.067 0-29.867 4.267-42.667 12.8-12.8-8.533-25.6-12.8-42.667-12.8-46.933 0-85.333 38.4-85.333 85.333s38.4 85.333 85.333 85.333c17.067 0 29.867-4.267 42.667-12.8 12.8 8.533 25.6 12.8 42.667 12.8 46.933 0 85.333-38.4 85.333-85.333s-38.4-85.333-85.333-85.333zM917.333 789.333h-810.667c-59.733 0-106.667-46.933-106.667-106.667v-42.667c0-12.8 8.533-21.333 21.333-21.333h981.333c12.8 0 21.333 8.533 21.333 21.333v42.667c0 59.733-46.933 106.667-106.667 106.667z" />
<glyph unicode="&#xe909;" glyph-name="Cuppon" data-tags="Cuppon" d="M917.333 960h-268.8c-51.2 0-102.4-21.333-136.533-55.467l-473.6-473.6c-25.6-25.6-38.4-55.467-38.4-89.6s12.8-64 38.4-89.6l281.6-281.6c21.333-21.333 51.2-34.133 85.333-34.133v0c34.133 0 64 12.8 89.6 38.4l473.6 473.6c34.133 34.133 55.467 85.333 55.467 136.533v268.8c0 59.733-46.933 106.667-106.667 106.667zM320 362.667c-34.133 0-64 29.867-64 64s29.867 64 64 64 64-29.867 64-64-29.867-64-64-64zM469.333 213.333c0-12.8-8.533-21.333-21.333-21.333s-21.333 8.533-21.333 21.333v341.333c0 12.8 8.533 21.333 21.333 21.333s21.333-8.533 21.333-21.333v-341.333zM576 277.333c-34.133 0-64 29.867-64 64s29.867 64 64 64 64-29.867 64-64-29.867-64-64-64zM789.333 618.667c-59.733 0-106.667 46.933-106.667 106.667s46.933 106.667 106.667 106.667 106.667-46.933 106.667-106.667-46.933-106.667-106.667-106.667z" />
<glyph unicode="&#xe90a;" glyph-name="Delete-Mail" data-tags="Delete-Mail" d="M896 917.333h-768c-59.733 0-106.667-46.933-106.667-106.667v-469.333c0-59.733 46.933-106.667 106.667-106.667h89.6c8.533 0 21.333 8.533 21.333 17.067 17.067 136.533 136.533 238.933 273.067 238.933s256-102.4 273.067-238.933c0-8.533 12.8-17.067 25.6-17.067h85.333c59.733 0 106.667 46.933 106.667 106.667v469.333c0 59.733-46.933 106.667-106.667 106.667zM358.4 537.6l-213.333-213.333c-4.267-4.267-12.8-4.267-17.067-4.267s-12.8 0-17.067 4.267c-8.533 8.533-8.533 21.333 0 29.867l213.333 213.333c8.533 8.533 25.6 8.533 34.133 4.267s4.267-25.6 0-34.133zM512 533.333c-21.333 0-46.933 8.533-64 21.333l-332.8 238.933c-8.533 8.533-12.8 21.333-4.267 29.867s21.333 12.8 29.867 4.267l332.8-238.933c25.6-17.067 55.467-17.067 81.067 0l332.8 238.933c8.533 8.533 21.333 4.267 29.867-4.267s4.267-21.333-4.267-29.867l-332.8-238.933c-21.333-12.8-46.933-21.333-68.267-21.333zM913.067 324.267c-4.267-4.267-12.8-4.267-17.067-4.267s-12.8 0-17.067 4.267l-213.333 213.333c-8.533 8.533-8.533 21.333 0 29.867s21.333 8.533 29.867 0l213.333-213.333c8.533-4.267 8.533-21.333 4.267-29.867zM512 448c-128 0-234.667-106.667-234.667-234.667s106.667-234.667 234.667-234.667 234.667 106.667 234.667 234.667-106.667 234.667-234.667 234.667zM597.333 192h-170.667c-12.8 0-21.333 8.533-21.333 21.333s8.533 21.333 21.333 21.333h170.667c12.8 0 21.333-8.533 21.333-21.333s-8.533-21.333-21.333-21.333z" />
<glyph unicode="&#xe90b;" glyph-name="Dismiss-Bag" data-tags="Dismiss-Bag" d="M981.333 682.667h-192v106.667c0 81.067-68.267 149.333-149.333 149.333h-256c-81.067 0-149.333-68.267-149.333-149.333v-106.667h-192c-12.8 0-21.333-8.533-21.333-21.333v-682.667c0-12.8 8.533-21.333 21.333-21.333h938.667c12.8 0 21.333 8.533 21.333 21.333v682.667c0 12.8-8.533 21.333-21.333 21.333zM678.4 153.6v0 0c-42.667-42.667-102.4-68.267-166.4-68.267-128 0-234.667 106.667-234.667 234.667 0 64 25.6 123.733 68.267 166.4v0 0c42.667 42.667 102.4 68.267 166.4 68.267 128 0 234.667-106.667 234.667-234.667 0-64-25.6-123.733-68.267-166.4zM746.667 533.333c0-12.8-8.533-21.333-21.333-21.333s-21.333 8.533-21.333 21.333v149.333h-384v-149.333c0-12.8-8.533-21.333-21.333-21.333s-21.333 8.533-21.333 21.333v256c0 59.733 46.933 106.667 106.667 106.667h256c59.733 0 106.667-46.933 106.667-106.667v-256zM320 320c0-106.667 85.333-192 192-192 46.933 0 85.333 17.067 119.467 42.667l-268.8 268.8c-25.6-34.133-42.667-72.533-42.667-119.467zM512 512c-46.933 0-85.333-17.067-119.467-42.667l268.8-268.8c25.6 34.133 42.667 72.533 42.667 119.467 0 106.667-85.333 192-192 192z" />
<glyph unicode="&#xe90c;" glyph-name="Dismiss-Cart" data-tags="Dismiss-Cart" d="M789.333 490.667c64 0 123.733 25.6 166.4 68.267v0 0c42.667 42.667 68.267 102.4 68.267 166.4 0 128-106.667 234.667-234.667 234.667-64 0-123.733-25.6-166.4-68.267v0 0c-42.667-42.667-68.267-102.4-68.267-166.4 0-128 106.667-234.667 234.667-234.667zM789.333 917.333c106.667 0 192-85.333 192-192 0-46.933-17.067-85.333-42.667-119.467l-268.8 268.8c34.133 25.6 72.533 42.667 119.467 42.667zM640 844.8l268.8-268.8c-34.133-25.6-72.533-42.667-119.467-42.667-106.667 0-192 85.333-192 192 0 46.933 17.067 85.333 42.667 119.467zM942.933 490.667c-8.533 0-17.067 0-21.333-8.533-42.667-21.333-85.333-34.133-132.267-34.133-153.6 0-277.333 123.733-277.333 277.333 0 12.8-8.533 21.333-21.333 21.333h-298.667l-21.333 110.933c-4.267 8.533-12.8 17.067-21.333 17.067h-128c-12.8 0-21.333-8.533-21.333-21.333s8.533-21.333 21.333-21.333h110.933l102.4-520.533c17.067-68.267 76.8-119.467 149.333-119.467h490.667c12.8 0 21.333 8.533 21.333 21.333s-8.533 21.333-21.333 21.333h-490.667c-8.533 0-17.067 0-21.333 4.267h-4.267c-8.533 0-12.8 4.267-21.333 8.533v0c-12.8 8.533-25.6 17.067-38.4 34.133l622.933 85.333c8.533 0 17.067 8.533 17.067 17.067l21.333 85.333c4.267 4.267-4.267 17.067-17.067 21.333zM896 42.667c0-58.91-47.756-106.667-106.667-106.667s-106.667 47.756-106.667 106.667c0 58.91 47.756 106.667 106.667 106.667s106.667-47.756 106.667-106.667zM469.333 42.667c0-58.91-47.756-106.667-106.667-106.667s-106.667 47.756-106.667 106.667c0 58.91 47.756 106.667 106.667 106.667s106.667-47.756 106.667-106.667z" />
<glyph unicode="&#xe90d;" glyph-name="Dollar-Bag" data-tags="Dollar-Bag" d="M448 362.667c0 0 0-8.533 42.667-17.067v38.4c-25.6-4.267-42.667-17.067-42.667-21.333zM533.333 294.4v-38.4c29.867 4.267 42.667 17.067 42.667 21.333 0 0 0 8.533-42.667 17.067zM512 554.667c-128 0-234.667-106.667-234.667-234.667s106.667-234.667 234.667-234.667 234.667 106.667 234.667 234.667-106.667 234.667-234.667 234.667zM533.333 213.333v-21.333c0-12.8-8.533-21.333-21.333-21.333s-21.333 8.533-21.333 21.333v21.333c-46.933 4.267-81.067 29.867-85.333 55.467 0 12.8 8.533 21.333 17.067 25.6 12.8 0 21.333-8.533 25.6-17.067 0-4.267 17.067-17.067 42.667-21.333v42.667c-34.133 4.267-85.333 17.067-85.333 59.733 0 34.133 34.133 55.467 85.333 64v25.6c0 12.8 8.533 21.333 21.333 21.333s21.333-8.533 21.333-21.333v-21.333c46.933-4.267 81.067-29.867 85.333-55.467 0-12.8-8.533-21.333-17.067-25.6-12.8 0-21.333 8.533-25.6 17.067 0 4.267-17.067 17.067-42.667 21.333v-42.667c34.133-4.267 85.333-17.067 85.333-59.733 0-38.4-34.133-59.733-85.333-68.267zM981.333 682.667h-192v106.667c0 81.067-68.267 149.333-149.333 149.333h-256c-81.067 0-149.333-68.267-149.333-149.333v-106.667h-192c-12.8 0-21.333-8.533-21.333-21.333v-682.667c0-12.8 8.533-21.333 21.333-21.333h938.667c12.8 0 21.333 8.533 21.333 21.333v682.667c0 12.8-8.533 21.333-21.333 21.333zM277.333 789.333c0 59.733 46.933 106.667 106.667 106.667h256c59.733 0 106.667-46.933 106.667-106.667v-213.333c0-12.8-8.533-21.333-21.333-21.333s-21.333 8.533-21.333 21.333v106.667h-384v-106.667c0-12.8-8.533-21.333-21.333-21.333s-21.333 8.533-21.333 21.333v213.333zM512 42.667c-153.6 0-277.333 123.733-277.333 277.333s123.733 277.333 277.333 277.333 277.333-123.733 277.333-277.333-123.733-277.333-277.333-277.333z" />
<glyph unicode="&#xe90e;" glyph-name="Dollar-Cart" data-tags="Dollar-Cart" d="M469.333 42.667c0-58.91-47.756-106.667-106.667-106.667s-106.667 47.756-106.667 106.667c0 58.91 47.756 106.667 106.667 106.667s106.667-47.756 106.667-106.667zM921.6 482.133c-38.4-21.333-85.333-34.133-132.267-34.133-153.6 0-277.333 123.733-277.333 277.333 0 12.8-8.533 21.333-21.333 21.333h-298.667l-21.333 110.933c-4.267 8.533-12.8 17.067-21.333 17.067h-128c-12.8 0-21.333-8.533-21.333-21.333s8.533-21.333 21.333-21.333h110.933l102.4-520.533c17.067-68.267 76.8-119.467 149.333-119.467h490.667c12.8 0 21.333 8.533 21.333 21.333s-8.533 21.333-21.333 21.333h-490.667c-34.133 0-68.267 17.067-85.333 46.933l622.933 85.333c8.533 0 17.067 8.533 17.067 17.067l12.8 81.067c0 8.533 0 17.067-8.533 21.333-4.267 0-12.8 0-21.333-4.267zM896 42.667c0-58.91-47.756-106.667-106.667-106.667s-106.667 47.756-106.667 106.667c0 58.91 47.756 106.667 106.667 106.667s106.667-47.756 106.667-106.667zM725.333 768c0 0 0-8.533 42.667-17.067v38.4c-25.6-4.267-42.667-17.067-42.667-21.333zM789.333 960c-128 0-234.667-106.667-234.667-234.667s106.667-234.667 234.667-234.667 234.667 106.667 234.667 234.667-106.667 234.667-234.667 234.667zM810.667 618.667v-21.333c0-12.8-8.533-21.333-21.333-21.333s-21.333 8.533-21.333 21.333v21.333c-46.933 4.267-81.067 29.867-85.333 55.467 0 12.8 8.533 21.333 17.067 25.6 12.8 4.267 25.6-4.267 25.6-17.067 0-4.267 17.067-17.067 42.667-21.333v42.667c-34.133 4.267-85.333 17.067-85.333 59.733 0 34.133 34.133 55.467 85.333 64v25.6c0 12.8 8.533 21.333 21.333 21.333s21.333-8.533 21.333-21.333v-21.333c46.933-4.267 81.067-29.867 85.333-55.467 0-12.8-8.533-21.333-17.067-25.6-12.8-4.267-25.6 4.267-25.6 17.067 0 4.267-17.067 17.067-42.667 21.333v-42.667c34.133-4.267 85.333-17.067 85.333-59.733 0-38.4-34.133-59.733-85.333-68.267zM810.667 699.733v-38.4c29.867 4.267 42.667 17.067 42.667 21.333 0 0 0 8.533-42.667 17.067z" />
<glyph unicode="&#xe90f;" glyph-name="Done-Bag" data-tags="Done-Bag" d="M981.333 682.667h-192v106.667c0 81.067-68.267 149.333-149.333 149.333h-256c-81.067 0-149.333-68.267-149.333-149.333v-106.667h-192c-12.8 0-21.333-8.533-21.333-21.333v-682.667c0-12.8 8.533-21.333 21.333-21.333h938.667c12.8 0 21.333 8.533 21.333 21.333v682.667c0 12.8-8.533 21.333-21.333 21.333zM277.333 789.333c0 59.733 46.933 106.667 106.667 106.667h256c59.733 0 106.667-46.933 106.667-106.667v-213.333c0-12.8-8.533-21.333-21.333-21.333s-21.333 8.533-21.333 21.333v106.667h-384v-106.667c0-12.8-8.533-21.333-21.333-21.333s-21.333 8.533-21.333 21.333v213.333zM512 42.667c-153.6 0-277.333 123.733-277.333 277.333s123.733 277.333 277.333 277.333 277.333-123.733 277.333-277.333-123.733-277.333-277.333-277.333zM512 554.667c-128 0-234.667-106.667-234.667-234.667s106.667-234.667 234.667-234.667 234.667 106.667 234.667 234.667-106.667 234.667-234.667 234.667zM657.067 388.267l-170.667-170.667c-4.267-4.267-8.533-4.267-17.067-4.267s-12.8 0-17.067 4.267l-85.333 85.333c-8.533 8.533-8.533 21.333 0 29.867s21.333 8.533 29.867 0l68.267-68.267 153.6 153.6c8.533 8.533 21.333 8.533 29.867 0 12.8-4.267 12.8-21.333 8.533-29.867z" />
<glyph unicode="&#xe910;" glyph-name="Done-Cat" data-tags="Done-Cat" d="M789.333 960c-128 0-234.667-106.667-234.667-234.667s106.667-234.667 234.667-234.667 234.667 106.667 234.667 234.667-106.667 234.667-234.667 234.667zM934.4 793.6l-170.667-170.667c-4.267-4.267-12.8-4.267-17.067-4.267s-12.8 0-17.067 4.267l-85.333 85.333c-8.533 8.533-8.533 21.333 0 29.867s21.333 8.533 29.867 0l68.267-68.267 153.6 153.6c8.533 8.533 21.333 8.533 29.867 0 12.8-4.267 12.8-21.333 8.533-29.867zM896 42.667c0-58.91-47.756-106.667-106.667-106.667s-106.667 47.756-106.667 106.667c0 58.91 47.756 106.667 106.667 106.667s106.667-47.756 106.667-106.667zM469.333 42.667c0-58.91-47.756-106.667-106.667-106.667s-106.667 47.756-106.667 106.667c0 58.91 47.756 106.667 106.667 106.667s106.667-47.756 106.667-106.667zM921.6 482.133c-38.4-21.333-85.333-34.133-132.267-34.133-153.6 0-277.333 123.733-277.333 277.333 0 12.8-8.533 21.333-21.333 21.333h-298.667l-21.333 110.933c-4.267 8.533-12.8 17.067-21.333 17.067h-128c-12.8 0-21.333-8.533-21.333-21.333s8.533-21.333 21.333-21.333h110.933l102.4-520.533c17.067-68.267 76.8-119.467 149.333-119.467h490.667c12.8 0 21.333 8.533 21.333 21.333s-8.533 21.333-21.333 21.333h-490.667c-34.133 0-68.267 17.067-85.333 46.933l622.933 85.333c8.533 0 17.067 8.533 17.067 17.067l12.8 81.067c0 8.533 0 17.067-8.533 21.333-4.267 0-12.8 0-21.333-4.267z" />
<glyph unicode="&#xe911;" glyph-name="Euro-Bag" data-tags="Euro-Bag" d="M512 554.667c-128 0-234.667-106.667-234.667-234.667s106.667-234.667 234.667-234.667 234.667 106.667 234.667 234.667-106.667 234.667-234.667 234.667zM512 384v0c12.8 0 21.333-8.533 21.333-21.333s-8.533-21.333-21.333-21.333h-64v-42.667h64c12.8 0 21.333-8.533 21.333-21.333s-8.533-21.333-21.333-21.333h-64c0-21.333 29.867-42.667 64-42.667 42.667 0 64 8.533 64 21.333s12.8 21.333 21.333 21.333c12.8 0 21.333-12.8 21.333-21.333-4.267-42.667-38.4-64-106.667-64-59.733 0-106.667 38.4-106.667 85.333h-21.333c-12.8 0-21.333 8.533-21.333 21.333s8.533 21.333 21.333 21.333h21.333v42.667h-21.333c-12.8 0-21.333 8.533-21.333 21.333s8.533 21.333 21.333 21.333h21.333c0 46.933 46.933 85.333 106.667 85.333 68.267 0 102.4-21.333 106.667-64 0-12.8-8.533-21.333-21.333-21.333s-21.333 8.533-21.333 21.333c0 17.067-21.333 21.333-64 21.333-34.133 0-64-21.333-64-42.667h64zM981.333 682.667h-192v106.667c0 81.067-68.267 149.333-149.333 149.333h-256c-81.067 0-149.333-68.267-149.333-149.333v-106.667h-192c-12.8 0-21.333-8.533-21.333-21.333v-682.667c0-12.8 8.533-21.333 21.333-21.333h938.667c12.8 0 21.333 8.533 21.333 21.333v682.667c0 12.8-8.533 21.333-21.333 21.333zM277.333 789.333c0 59.733 46.933 106.667 106.667 106.667h256c59.733 0 106.667-46.933 106.667-106.667v-213.333c0-12.8-8.533-21.333-21.333-21.333s-21.333 8.533-21.333 21.333v106.667h-384v-106.667c0-12.8-8.533-21.333-21.333-21.333s-21.333 8.533-21.333 21.333v213.333zM512 42.667c-153.6 0-277.333 123.733-277.333 277.333s123.733 277.333 277.333 277.333 277.333-123.733 277.333-277.333-123.733-277.333-277.333-277.333z" />
<glyph unicode="&#xe912;" glyph-name="Euro-Cart" data-tags="Euro-Cart" d="M896 42.667c0-58.91-47.756-106.667-106.667-106.667s-106.667 47.756-106.667 106.667c0 58.91 47.756 106.667 106.667 106.667s106.667-47.756 106.667-106.667zM469.333 42.667c0-58.91-47.756-106.667-106.667-106.667s-106.667 47.756-106.667 106.667c0 58.91 47.756 106.667 106.667 106.667s106.667-47.756 106.667-106.667zM921.6 482.133c-38.4-21.333-85.333-34.133-132.267-34.133-153.6 0-277.333 123.733-277.333 277.333 0 12.8-8.533 21.333-21.333 21.333h-298.667l-21.333 110.933c-4.267 8.533-12.8 17.067-21.333 17.067h-128c-12.8 0-21.333-8.533-21.333-21.333s8.533-21.333 21.333-21.333h110.933l102.4-520.533c17.067-68.267 76.8-119.467 149.333-119.467h490.667c12.8 0 21.333 8.533 21.333 21.333s-8.533 21.333-21.333 21.333h-490.667c-34.133 0-68.267 17.067-85.333 46.933l622.933 85.333c8.533 0 17.067 8.533 17.067 17.067l12.8 81.067c0 8.533 0 17.067-8.533 21.333-4.267 0-12.8 0-21.333-4.267zM789.333 960c-128 0-234.667-106.667-234.667-234.667s106.667-234.667 234.667-234.667 234.667 106.667 234.667 234.667-106.667 234.667-234.667 234.667zM789.333 789.333c12.8 0 21.333-8.533 21.333-21.333s-8.533-21.333-21.333-21.333h-64v-42.667h64c12.8 0 21.333-8.533 21.333-21.333s-8.533-21.333-21.333-21.333h-64c0-21.333 29.867-42.667 64-42.667 42.667 0 64 8.533 64 21.333s12.8 21.333 21.333 21.333c12.8 0 21.333-12.8 21.333-21.333-4.267-42.667-38.4-64-106.667-64-59.733 0-106.667 38.4-106.667 85.333h-21.333c-12.8 0-21.333 8.533-21.333 21.333s8.533 21.333 21.333 21.333h21.333v42.667h-21.333c-12.8 0-21.333 8.533-21.333 21.333s8.533 21.333 21.333 21.333h21.333c0 46.933 46.933 85.333 106.667 85.333 68.267 0 102.4-21.333 106.667-64 0-8.533-8.533-21.333-21.333-21.333-8.533 0-21.333 8.533-21.333 21.333s-21.333 21.333-64 21.333c-34.133 0-64-21.333-64-42.667h64z" />
<glyph unicode="&#xe913;" glyph-name="Favorite-Bag" data-tags="Favorite-Bag" d="M981.333 682.667h-192v106.667c0 81.067-68.267 149.333-149.333 149.333h-256c-81.067 0-149.333-68.267-149.333-149.333v-106.667h-192c-12.8 0-21.333-8.533-21.333-21.333v-682.667c0-12.8 8.533-21.333 21.333-21.333h938.667c12.8 0 21.333 8.533 21.333 21.333v682.667c0 12.8-8.533 21.333-21.333 21.333zM277.333 789.333c0 59.733 46.933 106.667 106.667 106.667h256c59.733 0 106.667-46.933 106.667-106.667v-256c0-12.8-8.533-21.333-21.333-21.333s-21.333 8.533-21.333 21.333v149.333h-384v-149.333c0-12.8-8.533-21.333-21.333-21.333s-21.333 8.533-21.333 21.333v256zM772.267 337.067l-140.8-102.4 51.2-162.133c4.267-8.533 0-17.067-8.533-25.6-4.267-4.267-8.533-4.267-12.8-4.267s-8.533 0-12.8 4.267l-136.533 98.133-136.533-98.133c-8.533-4.267-17.067-4.267-25.6 0s-8.533 12.8-8.533 21.333l51.2 166.4-140.8 102.4c-8.533 4.267-8.533 17.067-8.533 25.6 4.267 8.533 12.8 12.8 21.333 12.8h174.933l55.467 166.4c4.267 17.067 34.133 17.067 42.667 0l55.467-166.4h174.933c8.533 0 17.067-4.267 21.333-12.8-8.533-12.8-8.533-21.333-17.067-25.6z" />
<glyph unicode="&#xe914;" glyph-name="Favorite-Cart" data-tags="Favorite-Cart" d="M452.267 42.667c0-58.91-47.756-106.667-106.667-106.667s-106.667 47.756-106.667 106.667c0 58.91 47.756 106.667 106.667 106.667s106.667-47.756 106.667-106.667zM1041.067 768c-4.267 8.533-12.8 12.8-21.333 12.8h-174.933l-55.467 166.4c-4.267 17.067-34.133 17.067-42.667 0l-55.467-166.4h-174.933c-8.533 0-17.067-4.267-21.333-12.8s0-17.067 8.533-25.6l140.8-102.4-51.2-162.133c-4.267-8.533 0-17.067 8.533-25.6 8.533-4.267 17.067-4.267 25.6 0l136.533 98.133 136.533-98.133c4.267-4.267 8.533-4.267 12.8-4.267s8.533 0 12.8 4.267 12.8 12.8 8.533 25.6l-51.2 162.133 140.8 102.4c17.067 4.267 17.067 12.8 17.067 25.6zM878.933 42.667c0-58.91-47.756-106.667-106.667-106.667s-106.667 47.756-106.667 106.667c0 58.91 47.756 106.667 106.667 106.667s106.667-47.756 106.667-106.667zM904.533 409.6c-8.533 4.267-17.067 4.267-21.333 8.533l-98.133 72.533c-8.533 4.267-17.067 4.267-25.6 0l-98.133-72.533c-21.333-17.067-51.2-17.067-76.8 0-21.333 17.067-34.133 42.667-25.6 72.533l38.4 119.467c4.267 8.533 0 17.067-8.533 25.6l-102.4 76.8c-8.533 4.267-17.067 17.067-21.333 25.6 0 4.267-8.533 8.533-17.067 8.533h-273.067l-21.333 110.933c-4.267 8.533-12.8 17.067-21.333 17.067h-128c-12.8 0-21.333-8.533-21.333-21.333s8.533-21.333 21.333-21.333h110.933l102.4-520.533c17.067-68.267 76.8-119.467 149.333-119.467h490.667c12.8 0 21.333 8.533 21.333 21.333s-8.533 21.333-21.333 21.333h-490.667c-34.133 0-68.267 17.067-85.333 46.933l622.933 85.333c8.533 0 17.067 12.8 17.067 21.333 4.267 4.267-4.267 17.067-17.067 21.333z" />
<glyph unicode="&#xe915;" glyph-name="Financial-Care2" data-tags="Financial-Care 2" d="M832 704h-341.333c-12.8 0-21.333-8.533-21.333-21.333s8.533-21.333 21.333-21.333h341.333c12.8 0 21.333 8.533 21.333 21.333s-8.533 21.333-21.333 21.333zM473.6 759.467c0-8.533 8.533-12.8 17.067-12.8h341.333c8.533 0 17.067 4.267 17.067 12.8l85.333 170.667c4.267 4.267 4.267 17.067 0 21.333s-17.067 8.533-25.6 4.267l-157.867-76.8-72.533 72.533c-8.533 8.533-21.333 8.533-29.867 0l-72.533-72.533-162.133 76.8c-8.533 4.267-17.067 4.267-25.6-4.267s-4.267-17.067 0-21.333l85.333-170.667zM640 409.6v76.8c-25.6-4.267-42.667-21.333-42.667-38.4s12.8-29.867 42.667-38.4zM247.467 439.467c-34.133 38.4-179.2 46.933-226.133 51.2-4.267 0-12.8 0-17.067-4.267 0-4.267-4.267-12.8-4.267-17.067v-426.667c0-12.8 8.533-21.333 21.333-21.333h128c8.533 0 17.067 4.267 21.333 12.8s76.8 277.333 85.333 388.267c0 8.533 0 12.8-8.533 17.067zM388.267 405.333c34.133-4.267 72.533-17.067 102.4-25.6 25.6-8.533 51.2-17.067 64-17.067 0 0 38.4 0 85.333-8.533v12.8c-55.467 12.8-85.333 42.667-85.333 81.067 0 42.667 38.4 76.8 85.333 85.333v21.333c0 12.8 8.533 21.333 21.333 21.333s21.333-8.533 21.333-21.333v-21.333c46.933-8.533 81.067-38.4 85.333-76.8 0-12.8-8.533-21.333-21.333-21.333s-21.333 8.533-21.333 21.333c0 17.067-21.333 34.133-42.667 38.4v-85.333c55.467-12.8 85.333-42.667 85.333-81.067 0-4.267 0-4.267 0-8.533 25.6-17.067 42.667-42.667 42.667-76.8 0 0 0 0 0 0l17.067-4.267 51.2 21.333c21.333 8.533 42.667 12.8 59.733 12.8 34.133 0 59.733-12.8 85.333-29.867 0 8.533 0 12.8 0 21.333 0 123.733-166.4 345.6-174.933 354.133-4.267-4.267-8.533 0-17.067 0h-341.333c-8.533 0-12.8-4.267-17.067-8.533s-76.8-102.4-123.733-200.533c8.533 0 21.333 0 29.867-4.267h8.533zM682.667 345.6c12.8-4.267 25.6-8.533 38.4-12.8-4.267 8.533-17.067 17.067-38.4 21.333v-8.533zM896 213.333l-149.333-64c-42.667 0-128 0-149.333 0s-132.267 34.133-115.2 42.667c4.267 0 12.8 0 29.867 0 98.133-8.533 256-29.867 256 42.667s-170.667 85.333-213.333 85.333-110.933 38.4-170.667 42.667c-25.6 0-55.467 4.267-89.6 8.533-12.8-93.867-51.2-226.133-72.533-290.133l226.133-102.4c85.333-34.133 140.8-72.533 320 0 0 0 256 106.667 256 170.667 0 51.2-59.733 85.333-128 64z" />
<glyph unicode="&#xe916;" glyph-name="Full-Cart" data-tags="Full-Cart" d="M469.333 42.667c0-58.91-47.756-106.667-106.667-106.667s-106.667 47.756-106.667 106.667c0 58.91 47.756 106.667 106.667 106.667s106.667-47.756 106.667-106.667zM1019.733 738.133c-4.267 4.267-8.533 8.533-17.067 8.533h-123.733l25.6 25.6c21.333 21.333 34.133 46.933 34.133 76.8s-12.8 55.467-34.133 76.8c-34.133 34.133-85.333 42.667-128 21.333-4.267-4.267-8.533-8.533-8.533-17.067v-183.467h-42.667v192c0 12.8-8.533 21.333-21.333 21.333h-170.667c-12.8 0-21.333-8.533-21.333-21.333v-192h-42.667v106.667c0 4.267-4.267 12.8-4.267 17.067l-85.333 85.333c-8.533 4.267-25.6 4.267-34.133 0l-128-128c-4.267-8.533-4.267-25.6 0-34.133l51.2-46.933h-76.8l-21.333 110.933c-4.267 8.533-12.8 17.067-21.333 17.067h-128c-12.8 0-21.333-8.533-21.333-21.333s8.533-21.333 21.333-21.333h110.933l102.4-520.533c17.067-68.267 76.8-119.467 149.333-119.467h490.667c12.8 0 21.333 8.533 21.333 21.333s-8.533 21.333-21.333 21.333h-490.667c-34.133 0-68.267 17.067-85.333 46.933l622.933 85.333c8.533 0 17.067 8.533 17.067 17.067l85.333 341.333c0 0 0 8.533-4.267 12.8zM896 42.667c0-58.91-47.756-106.667-106.667-106.667s-106.667 47.756-106.667 106.667c0 58.91 47.756 106.667 106.667 106.667s106.667-47.756 106.667-106.667z" />
<glyph unicode="&#xe917;" glyph-name="Gear-12" data-tags="Gear-1 2" d="M998.4 507.733c-8.533 51.2-59.733 85.333-106.667 64-17.067-8.533-38.4 4.267-46.933 21.333-8.533 21.333-21.333 42.667-38.4 64-12.8 17.067-8.533 38.4 4.267 51.2 17.067 17.067 29.867 38.4 29.867 64s-12.8 46.933-34.133 64c-34.133 25.6-68.267 46.933-106.667 59.733-8.533 4.267-21.333 8.533-29.867 8.533-38.4 0-72.533-29.867-81.067-68.267-4.267-21.333-21.333-34.133-42.667-29.867-25.6 4.267-46.933 4.267-72.533 0-21.333 0-38.4 12.8-42.667 29.867-4.267 42.667-38.4 68.267-76.8 68.267-12.8 0-21.333 0-34.133-4.267-34.133-17.067-72.533-38.4-102.4-59.733-21.333-17.067-34.133-38.4-34.133-64s8.533-46.933 29.867-64c12.8-12.8 17.067-34.133 4.267-51.2-12.8-21.333-25.6-42.667-34.133-64-8.533-17.067-29.867-29.867-51.2-21.333-8.533 4.267-17.067 4.267-25.6 4.267-38.4 0-72.533-29.867-81.067-72.533-4.267-21.333-4.267-42.667-4.267-59.733s0-42.667 4.267-59.733c8.533-51.2 59.733-85.333 106.667-64 17.067 8.533 38.4-4.267 46.933-21.333 8.533-21.333 21.333-42.667 38.4-64 12.8-17.067 8.533-38.4-4.267-51.2-17.067-17.067-29.867-38.4-29.867-64s12.8-46.933 34.133-64c34.133-25.6 68.267-46.933 106.667-59.733 8.533-4.267 21.333-8.533 29.867-8.533 38.4 0 72.533 29.867 81.067 68.267 4.267 21.333 21.333 34.133 42.667 29.867 25.6-4.267 46.933-4.267 72.533 0 21.333 0 38.4-12.8 42.667-29.867 8.533-38.4 38.4-68.267 81.067-68.267 0 0 0 0 0 0 12.8 0 21.333 4.267 29.867 8.533 38.4 17.067 72.533 38.4 106.667 59.733 21.333 17.067 29.867 38.4 34.133 64 0 25.6-8.533 46.933-29.867 64-17.067 12.8-17.067 34.133-4.267 51.2 12.8 21.333 25.6 42.667 38.4 64 8.533 17.067 29.867 29.867 46.933 21.333 8.533-4.267 17.067-4.267 29.867-4.267 38.4 0 72.533 29.867 81.067 72.533 4.267 21.333 4.267 42.667 4.267 59.733-8.533 17.067-8.533 38.4-12.8 55.467zM512 170.667c-153.6 0-277.333 123.733-277.333 277.333s123.733 277.333 277.333 277.333 277.333-123.733 277.333-277.333-123.733-277.333-277.333-277.333zM512 682.667c-128 0-234.667-106.667-234.667-234.667 0-55.467 21.333-106.667 51.2-145.067 21.333 42.667 64 85.333 115.2 106.667-21.333 21.333-38.4 46.933-38.4 81.067 0 59.733 46.933 106.667 106.667 106.667s106.667-46.933 106.667-106.667c0-34.133-12.8-59.733-38.4-81.067 51.2-21.333 93.867-64 115.2-106.667 34.133 38.4 51.2 89.6 51.2 145.067 0 128-106.667 234.667-234.667 234.667zM512 384c-64 0-132.267-59.733-149.333-115.2 0 0 0 0 0 0 42.667-34.133 93.867-55.467 149.333-55.467 59.733 0 110.933 21.333 149.333 55.467 0 0 0 0 0 0-17.067 55.467-85.333 115.2-149.333 115.2zM576 490.667c0-35.346-28.654-64-64-64s-64 28.654-64 64c0 35.346 28.654 64 64 64s64-28.654 64-64z" />
<glyph unicode="&#xe918;" glyph-name="Gift-Box2" data-tags="Gift-Box 2" d="M426.667 409.6h-341.333c-12.8 0-21.333-8.533-21.333-21.333v-298.667c0-59.733 46.933-106.667 106.667-106.667h256c12.8 0 21.333 8.533 21.333 21.333v384c0 12.8-8.533 21.333-21.333 21.333zM413.867 503.467c-8.533-4.267-21.333-8.533-29.867-8.533v0c-17.067 0-34.133 8.533-42.667 17.067-12.8 12.8-17.067 29.867-17.067 46.933s8.533 34.133 17.067 46.933l29.867 29.867c4.267 4.267 8.533 12.8 4.267 17.067s-4.267 8.533-12.8 12.8c-12.8 8.533-29.867 21.333-42.667 34.133-4.267 4.267-8.533 8.533-12.8 8.533h-179.2c-59.733 0-106.667-46.933-106.667-106.667v-128c0-12.8 8.533-21.333 21.333-21.333h384c12.8 0 21.333 8.533 21.333 21.333v12.8c0 8.533-4.267 12.8-12.8 17.067-4.267 4.267-12.8 4.267-21.333 0zM938.667 409.6h-341.333c-12.8 0-21.333-8.533-21.333-21.333v-384c0-12.8 8.533-21.333 21.333-21.333h256c59.733 0 106.667 46.933 106.667 106.667v298.667c0 12.8-8.533 21.333-21.333 21.333zM640 537.6c4.267 0 12.8 0 17.067 4.267 8.533 8.533 8.533 21.333 0 29.867l-98.133 98.133c85.333 17.067 153.6 76.8 179.2 162.133 4.267 17.067 0 38.4-8.533 55.467-17.067 21.333-42.667 29.867-68.267 21.333-68.267-21.333-119.467-68.267-145.067-128-25.6 59.733-81.067 110.933-145.067 128-29.867 8.533-59.733 0-72.533-21.333-12.8-17.067-17.067-34.133-12.8-55.467 25.6-85.333 93.867-145.067 179.2-162.133l-98.133-98.133c-8.533-8.533-8.533-21.333 0-29.867s21.333-8.533 29.867 0l89.6 89.6v-631.467c0-12.8 8.533-21.333 21.333-21.333s21.333 8.533 21.333 21.333v635.733l89.6-89.6c8.533-8.533 17.067-8.533 21.333-8.533zM328.533 844.8c-4.267 8.533 0 12.8 4.267 17.067s8.533 8.533 17.067 8.533h4.267c72.533-21.333 128-85.333 136.533-162.133-76.8 8.533-140.8 64-162.133 136.533zM669.867 870.4h4.267c4.267 0 12.8-4.267 17.067-8.533s4.267-8.533 4.267-17.067c-21.333-72.533-85.333-128-162.133-136.533 8.533 76.8 64 140.8 136.533 162.133zM896 708.267h-179.2c-4.267 0-12.8 0-12.8-4.267-17.067-12.8-29.867-25.6-42.667-34.133-4.267-4.267-8.533-8.533-8.533-17.067s0-12.8 4.267-17.067l29.867-29.867c12.8-12.8 17.067-29.867 17.067-46.933s-8.533-34.133-17.067-46.933c-12.8-12.8-29.867-17.067-46.933-17.067-12.8 0-21.333 4.267-29.867 8.533s-12.8 4.267-21.333 0-12.8-12.8-12.8-17.067v-12.8c0-12.8 8.533-21.333 21.333-21.333h384c12.8 0 21.333 8.533 21.333 21.333v128c0 59.733-46.933 106.667-106.667 106.667z" />
<glyph unicode="&#xe919;" glyph-name="Gift-Card2" data-tags="Gift-Card 2" d="M0 682.667v-106.667h157.867c-25.6 12.8-42.667 29.867-46.933 51.2-4.267 17.067-4.267 42.667 25.6 72.533 17.067 17.067 34.133 25.6 51.2 25.6 29.867 0 51.2-21.333 68.267-46.933v110.933h-149.333c-59.733 0-106.667-46.933-106.667-106.667zM187.733 682.667c-8.533 0-17.067-4.267-25.6-12.8-8.533-12.8-12.8-21.333-12.8-29.867 8.533-21.333 55.467-42.667 98.133-55.467-12.8 46.933-34.133 98.133-59.733 98.133zM810.667 298.667c0 0 0 8.533-42.667 17.067v-38.4c29.867 8.533 42.667 17.067 42.667 21.333zM192 405.333c-12.8 0-21.333 8.533-21.333 21.333 0 42.667 25.6 81.067 51.2 106.667h-221.867v-320c0-59.733 46.933-106.667 106.667-106.667h149.333v401.067c-21.333-21.333-42.667-51.2-42.667-81.067 0-12.8-8.533-21.333-21.333-21.333zM725.333 366.933v38.4c-25.6-4.267-42.667-17.067-42.667-21.333 0 0 0-8.533 42.667-17.067zM384 426.667c0-12.8-8.533-21.333-21.333-21.333s-21.333 8.533-21.333 21.333c0 29.867-21.333 59.733-42.667 81.067v-401.067h618.667c59.733 0 106.667 46.933 106.667 106.667v320h-691.2c25.6-25.6 51.2-64 51.2-106.667zM725.333 448v21.333c0 12.8 8.533 21.333 21.333 21.333s21.333-8.533 21.333-21.333v-21.333c46.933-4.267 81.067-29.867 85.333-55.467 0-12.8-8.533-21.333-17.067-25.6-12.8 0-21.333 8.533-25.6 17.067 0 4.267-17.067 17.067-42.667 21.333v-42.667c34.133-4.267 85.333-17.067 85.333-59.733 0-34.133-34.133-55.467-85.333-64v-21.333c0-12.8-8.533-21.333-21.333-21.333s-21.333 4.267-21.333 17.067v21.333c-46.933 4.267-81.067 29.867-85.333 55.467 0 12.8 8.533 21.333 17.067 25.6 12.8 0 21.333-8.533 25.6-17.067 0-4.267 17.067-17.067 42.667-21.333v42.667c-34.133 4.267-85.333 17.067-85.333 59.733 0 38.4 34.133 59.733 85.333 68.267zM917.333 789.333h-618.667v-110.933c17.067 25.6 38.4 46.933 68.267 46.933 17.067 0 38.4-8.533 55.467-25.6 29.867-29.867 29.867-55.467 25.6-72.533-8.533-21.333-25.6-38.4-51.2-51.2h627.2v106.667c0 59.733-46.933 106.667-106.667 106.667zM405.333 640c4.267 8.533-4.267 17.067-12.8 29.867-12.8 8.533-21.333 12.8-25.6 12.8-25.6 0-46.933-51.2-59.733-98.133 42.667 12.8 89.6 34.133 98.133 55.467z" />
<glyph unicode="&#xe91a;" glyph-name="Globe-1" data-tags="Globe-1" d="M277.333 469.333h213.333v213.333h-179.2c-21.333-64-29.867-136.533-34.133-213.333zM234.667 426.667h-213.333c4.267-76.8 25.6-149.333 59.733-213.333h183.467c-17.067 64-25.6 136.533-29.867 213.333zM324.267 725.333h166.4v187.733c-68.267-12.8-128-85.333-166.4-187.733zM533.333 913.067v-187.733h166.4c-38.4 102.4-98.133 174.933-166.4 187.733zM712.533 682.667h-179.2v-213.333h213.333c-4.267 76.8-12.8 149.333-34.133 213.333zM789.333 426.667c0-76.8-12.8-149.333-29.867-213.333h183.467c34.133 64 55.467 136.533 59.733 213.333h-213.333zM311.467 213.333h179.2v213.333h-213.333c4.267-76.8 12.8-149.333 34.133-213.333zM264.533 682.667h-183.467c-34.133-64-55.467-136.533-59.733-213.333h213.333c4.267 76.8 12.8 149.333 29.867 213.333zM490.667-17.067v187.733h-166.4c38.4-102.4 98.133-174.933 166.4-187.733zM277.333 170.667h-170.667c72.533-102.4 179.2-179.2 307.2-204.8-55.467 38.4-102.4 110.933-136.533 204.8zM605.867-34.133c128 25.6 238.933 98.133 307.2 204.8h-170.667c-29.867-93.867-76.8-166.4-136.533-204.8zM746.667 725.333h170.667c-72.533 102.4-179.2 179.2-307.2 204.8 55.467-38.4 102.4-110.933 136.533-204.8zM418.133 930.133c-128-25.6-238.933-98.133-307.2-204.8h170.667c29.867 93.867 76.8 166.4 136.533 204.8zM533.333 170.667v-187.733c68.267 12.8 128 85.333 166.4 187.733h-166.4zM746.667 426.667h-213.333v-213.333h179.2c21.333 64 29.867 136.533 34.133 213.333zM789.333 469.333h213.333c-4.267 76.8-25.6 149.333-59.733 213.333h-183.467c17.067-64 25.6-136.533 29.867-213.333z" />
<glyph unicode="&#xe91b;" glyph-name="Globe-2" data-tags="Globe-2" d="M456.533 729.6c-8.533-17.067-17.067-29.867-25.6-42.667-4.267-8.533-8.533-12.8-8.533-17.067-8.533-8.533-12.8-17.067-21.333-25.6-4.267-8.533-8.533-12.8-12.8-17.067-8.533-8.533-12.8-17.067-21.333-25.6-4.267-4.267-12.8-8.533-17.067-12.8s-8.533-8.533-12.8-17.067v-8.533c4.267-4.267 4.267-12.8 4.267-21.333 0-4.267 0-12.8 0-17.067 12.8-4.267 21.333-8.533 34.133-12.8 4.267 0 4.267 0 8.533-4.267 51.2-12.8 102.4-21.333 153.6-17.067 0 4.267 0 8.533 0 17.067v4.267c0 4.267 4.267 8.533 4.267 12.8 0 0 0 4.267 4.267 4.267 0 4.267 4.267 4.267 4.267 8.533l4.267 4.267c0 4.267 4.267 4.267 4.267 8.533l4.267 4.267c4.267 0 4.267 4.267 8.533 4.267l4.267 4.267c4.267 0 4.267 4.267 8.533 4.267s4.267 0 8.533 4.267c4.267 0 4.267 0 8.533 4.267 4.267 0 4.267 0 8.533 0h4.267c4.267 12.8 4.267 25.6 8.533 38.4 0 4.267 4.267 12.8 4.267 17.067 4.267 21.333 12.8 42.667 21.333 64 0 4.267 0 4.267 4.267 8.533 8.533 17.067 17.067 38.4 25.6 55.467 4.267 8.533 8.533 12.8 8.533 21.333 4.267 8.533 8.533 21.333 17.067 29.867v0 0c-4.267 4.267-12.8 8.533-17.067 17.067l-4.267 4.267c-4.267 4.267-4.267 8.533-8.533 17.067 0 4.267 0 4.267-4.267 8.533-4.267 8.533-4.267 17.067-4.267 25.6 0 4.267 0 12.8 0 17.067-51.2 17.067-102.4 29.867-153.6 25.6 0-8.533 0-12.8-4.267-21.333 0-8.533 0-12.8-4.267-21.333 0-8.533-4.267-21.333-8.533-29.867 0-8.533-4.267-12.8-4.267-21.333-4.267-12.8-8.533-21.333-8.533-34.133 0-4.267-4.267-12.8-4.267-17.067-4.267-12.8-12.8-29.867-17.067-42.667-4.267-4.267-4.267-8.533-4.267-8.533zM110.933 503.467v0c21.333 4.267 38.4 12.8 55.467 17.067 4.267 0 4.267 0 8.533 4.267 0 4.267 0 12.8 0 17.067 0 8.533 0 17.067 4.267 21.333v8.533c-4.267 4.267-8.533 4.267-8.533 8.533-12.8 8.533-21.333 17.067-29.867 29.867-4.267 4.267-8.533 4.267-8.533 8.533-12.8 12.8-25.6 25.6-34.133 42.667 0 0 0 0-4.267 4.267-25.6-51.2-42.667-110.933-51.2-170.667 4.267 0 4.267 0 8.533 0 21.333 0 38.4 4.267 59.733 8.533zM221.867 567.467c-4.267-8.533-8.533-17.067-8.533-25.6s0-12.8 4.267-21.333 8.533-12.8 17.067-17.067c21.333-12.8 46.933-4.267 59.733 17.067 4.267 8.533 4.267 12.8 4.267 21.333s-4.267 17.067-8.533 25.6c-17.067 21.333-51.2 21.333-68.267 0zM733.867 836.267v0c4.267 0 4.267 0 8.533 0s4.267 0 8.533 0c17.067 0 25.6 8.533 34.133 21.333 4.267 8.533 4.267 12.8 4.267 21.333 0 25.6-17.067 42.667-42.667 42.667-17.067 0-29.867-8.533-38.4-21.333-4.267-8.533-4.267-12.8-4.267-21.333 0-21.333 12.8-38.4 29.867-42.667zM153.6 657.067c4.267 0 4.267-4.267 0 0 17.067-17.067 29.867-29.867 42.667-42.667l4.267-4.267c8.533 0 12.8 4.267 17.067 8.533h4.267c4.267 0 8.533 4.267 12.8 4.267h4.267c4.267 0 12.8 4.267 17.067 4.267s12.8 0 17.067-4.267h4.267c4.267 0 12.8-4.267 17.067-4.267h4.267c0-4.267 4.267-8.533 8.533-8.533 4.267 4.267 12.8 4.267 17.067 8.533s8.533 8.533 12.8 12.8c4.267 8.533 12.8 17.067 17.067 25.6 4.267 4.267 8.533 8.533 12.8 12.8 8.533 8.533 12.8 17.067 21.333 29.867 0 0 4.267 4.267 4.267 8.533 8.533 12.8 17.067 25.6 25.6 38.4 0 4.267 4.267 8.533 4.267 8.533 4.267 12.8 8.533 25.6 12.8 34.133 0 4.267 4.267 12.8 4.267 17.067 4.267 8.533 4.267 17.067 8.533 29.867 0 4.267 4.267 12.8 4.267 17.067 0 8.533 4.267 17.067 4.267 25.6s0 12.8 4.267 21.333c0 4.267 0 8.533 0 12.8-136.533-12.8-264.533-89.6-341.333-209.067l4.267-4.267c8.533-17.067 21.333-29.867 29.867-42.667zM930.133 661.333c0 0-4.267 0 0 0-12.8-17.067-25.6-34.133-42.667-51.2-4.267-4.267-4.267-4.267-8.533-8.533-12.8-17.067-29.867-29.867-46.933-42.667-4.267 0-4.267-4.267-8.533-4.267-17.067-12.8-34.133-25.6-51.2-34.133 0 0-4.267 0-4.267-4.267-17.067-12.8-38.4-21.333-59.733-29.867-4.267 0-4.267-4.267-4.267-4.267s0 0 0-4.267c0-8.533-4.267-12.8-4.267-21.333 0 0 0 0 0-4.267-4.267-8.533-8.533-12.8-12.8-21.333 0 0 0-4.267-4.267-4.267-4.267-4.267-8.533-12.8-17.067-17.067v0c-4.267-4.267-12.8-8.533-21.333-8.533 0 0 0 0-4.267 0 0-4.267 0-8.533 0-8.533 4.267 0 8.533 0 17.067 0 4.267 0 12.8 0 17.067 0 12.8 0 21.333 0 34.133 0 4.267 0 8.533 0 12.8 0h4.267c4.267 0 8.533 0 12.8 0 12.8 0 29.867 0 42.667-4.267 4.267 0 12.8 0 17.067 0 17.067 0 29.867-4.267 46.933-8.533 4.267 0 8.533 0 12.8-4.267 17.067-4.267 38.4-8.533 55.467-17.067 4.267 0 4.267 0 8.533-4.267 17.067-4.267 29.867-12.8 46.933-21.333 4.267 0 4.267 0 8.533-4.267 8.533 34.133 12.8 68.267 12.8 98.133-8.533 98.133-25.6 170.667-59.733 234.667zM640 529.067c-4.267 0-8.533 4.267-12.8 4.267v0c-4.267 0-12.8 0-17.067 0 0 0 0 0-4.267 0-12.8-4.267-21.333-12.8-25.6-21.333-4.267-4.267-4.267-12.8-4.267-17.067s0-8.533 0-12.8v0c4.267-17.067 21.333-29.867 42.667-29.867 17.067 0 34.133 12.8 38.4 25.6 0 4.267 4.267 8.533 4.267 17.067 0 4.267 0 4.267 0 8.533-4.267 8.533-12.8 17.067-21.333 25.6zM772.267 793.6c-4.267 0-4.267 0-8.533 0s-8.533 0-12.8 0h-4.267c-4.267 0-4.267 0-8.533 0v0c-8.533-12.8-12.8-21.333-17.067-34.133-4.267-4.267-4.267-12.8-8.533-17.067-12.8-21.333-21.333-38.4-29.867-59.733 0-4.267 0-4.267-4.267-8.533-4.267-17.067-12.8-34.133-17.067-51.2 0-8.533-4.267-12.8-4.267-21.333-4.267-8.533-4.267-21.333-8.533-29.867v0c4.267-4.267 12.8-8.533 17.067-12.8l4.267-4.267c8.533-8.533 12.8-12.8 17.067-21.333v0h4.267c17.067 8.533 38.4 17.067 55.467 25.6 4.267 0 4.267 4.267 8.533 4.267 25.6 12.8 42.667 21.333 55.467 38.4l4.267 4.267c17.067 12.8 29.867 25.6 42.667 42.667l4.267 4.267c12.8 17.067 25.6 29.867 38.4 46.933l4.267 4.267c-25.6 42.667-59.733 76.8-98.133 106.667-4.267-4.267-8.533-8.533-17.067-12.8h-4.267c-4.267 0-8.533-4.267-12.8-4.267zM439.467 349.867c-4.267-4.267-8.533-4.267-12.8-8.533-4.267-8.533-8.533-17.067-8.533-25.6s4.267-17.067 8.533-25.6c4.267-8.533 17.067-12.8 25.6-17.067 12.8-4.267 29.867 0 42.667 12.8 8.533 8.533 12.8 17.067 12.8 29.867 0 4.267 0 12.8-4.267 17.067v0c-17.067 21.333-42.667 29.867-64 17.067zM311.467 221.867c12.8 12.8 25.6 25.6 38.4 38.4 4.267 4.267 8.533 8.533 12.8 8.533 8.533 4.267 12.8 12.8 21.333 17.067 0 0 0 0 0 4.267v4.267c0 8.533-4.267 12.8-4.267 21.333 0 17.067 4.267 34.133 17.067 51.2v0 0c17.067 21.333 42.667 34.133 68.267 34.133 17.067 0 34.133-4.267 51.2-17.067 4.267 0 4.267-4.267 8.533-8.533 4.267 0 4.267-4.267 8.533-4.267v0c12.8 4.267 25.6 8.533 38.4 12.8 0 0 0 0 4.267 0 12.8 4.267 21.333 4.267 34.133 8.533 0 4.267 0 12.8 0 17.067 0 0 0 0-4.267 0s-4.267 0-8.533 4.267c-4.267 0-8.533 4.267-12.8 8.533 0 0-4.267 0-4.267 4.267-4.267 4.267-12.8 8.533-17.067 17.067l-8.533 8.533c-4.267 0-8.533 0-12.8 0-8.533 0-12.8 0-21.333 0-4.267 0-8.533 0-12.8 0-8.533 0-17.067 0-29.867 0-8.533 0-17.067 0-25.6 4.267-8.533 0-17.067 4.267-29.867 4.267-8.533 0-17.067 4.267-25.6 4.267-8.533 4.267-17.067 4.267-25.6 8.533s-21.333 8.533-29.867 8.533c-4.267 0-8.533 4.267-17.067 4.267v0l-4.267-4.267c-4.267-4.267-4.267-4.267-8.533-4.267-12.8-8.533-29.867-17.067-46.933-17.067s-34.133 4.267-46.933 17.067c-4.267 0-4.267 4.267-8.533 8.533l-4.267 4.267c-4.267-4.267-12.8-4.267-17.067-4.267-4.267-4.267-12.8-4.267-17.067-4.267-8.533-4.267-17.067-4.267-25.6-8.533-4.267 0-12.8-4.267-17.067-4.267-8.533-4.267-21.333-4.267-29.867-4.267-4.267 0-8.533 0-17.067-4.267-8.533 0-17.067 0-25.6-4.267 0 0 0 0 0-4.267 0-123.733 46.933-234.667 132.267-324.267 0 0 4.267 0 4.267 4.267l4.267 4.267c12.8 8.533 25.6 12.8 38.4 17.067h4.267c4.267 0 8.533 0 12.8 0s4.267 0 8.533 0 4.267 0 8.533 0c4.267 8.533 8.533 12.8 12.8 21.333 4.267 4.267 4.267 8.533 8.533 12.8 0 4.267 12.8 17.067 21.333 34.133 0-4.267 0 0 0 0zM785.067 59.733c-4.267 0-4.267 0-8.533 4.267-4.267 0-4.267 0-8.533 0s-8.533 0-12.8 0c0 0 0 0-4.267 0s-8.533-4.267-12.8-4.267-12.8-12.8-17.067-25.6c0-4.267 0-8.533 0-8.533 0-4.267 0-8.533 4.267-12.8 4.267-17.067 21.333-29.867 38.4-29.867 25.6 0 42.667 17.067 42.667 42.667 0 12.8-4.267 21.333-12.8 29.867 4.267 0-4.267 0-8.533 4.267zM930.133 320c-8.533 4.267-17.067 4.267-21.333 8.533-4.267 0-8.533 4.267-17.067 4.267-8.533 4.267-17.067 4.267-29.867 8.533-4.267 0-8.533 4.267-12.8 4.267-12.8 4.267-25.6 4.267-42.667 8.533 0 0 0 0-4.267 0-12.8 0-25.6 4.267-38.4 4.267-4.267 0-8.533 0-12.8 0-8.533 0-21.333 0-29.867 0-4.267 0-8.533 0-17.067 0s-17.067 0-25.6 0c-4.267 0-12.8 0-17.067 0s-8.533 0-12.8 0c0-12.8 4.267-25.6 4.267-38.4 0-8.533 4.267-17.067 4.267-25.6 4.267-21.333 12.8-46.933 21.333-68.267 0 0 0 0 0-4.267 8.533-21.333 17.067-46.933 29.867-68.267 4.267-8.533 8.533-12.8 12.8-21.333 8.533-12.8 12.8-25.6 21.333-34.133 4.267 8.533 17.067 8.533 25.6 8.533 4.267 0 4.267 0 8.533 0h4.267c8.533 0 12.8-4.267 17.067-4.267s8.533-4.267 12.8-4.267c0 0 4.267 0 4.267-4.267 68.267 55.467 115.2 132.267 140.8 213.333-4.267 4.267-8.533 4.267-12.8 8.533-4.267 0-8.533 0-12.8 4.267zM256 102.4v0c-4.267 0-12.8 4.267-17.067 4.267v0c-4.267 0-12.8 0-17.067 0v0c-4.267 0-8.533-4.267-12.8-8.533 0 0 0 0-4.267 0-4.267-4.267-8.533-8.533-8.533-12.8-4.267-4.267-4.267-12.8-4.267-17.067 0-25.6 17.067-42.667 42.667-42.667 12.8 0 21.333 4.267 29.867 12.8s12.8 21.333 12.8 29.867c0 12.8-8.533 25.6-21.333 34.133zM669.867 136.533c0 4.267-4.267 4.267-4.267 8.533-8.533 21.333-17.067 38.4-25.6 59.733v4.267c-8.533 21.333-12.8 42.667-17.067 64 0 4.267 0 8.533-4.267 8.533-4.267 21.333-8.533 42.667-12.8 59.733v4.267c-4.267 0-8.533 0-12.8-4.267-12.8-4.267-21.333-8.533-34.133-12.8-4.267 0-8.533-4.267-12.8-4.267 0-4.267 0-8.533 0-12.8 0-21.333-8.533-42.667-21.333-59.733v0l-4.267-4.267c-17.067-17.067-38.4-25.6-59.733-25.6-8.533 0-17.067 0-25.6 4.267 0 0 0 0-4.267 0s-8.533 4.267-12.8 4.267c-4.267 4.267-8.533 4.267-12.8 8.533-4.267-4.267-12.8-8.533-17.067-12.8s-8.533-8.533-12.8-8.533c-12.8-8.533-21.333-21.333-29.867-29.867 0 0 0 0-4.267-4.267-8.533-12.8-21.333-21.333-29.867-34.133-4.267-4.267-4.267-8.533-8.533-12.8s-8.533-12.8-12.8-17.067v0c4.267-4.267 8.533-8.533 12.8-12.8 0 0 0-4.267 4.267-4.267 4.267-4.267 4.267-8.533 4.267-12.8v-4.267c0-8.533 4.267-12.8 4.267-21.333s0-12.8-4.267-17.067v-4.267c0-4.267-4.267-8.533-4.267-12.8 0 0 0 0 0-4.267 110.933-55.467 238.933-59.733 358.4-17.067 4.267 0 8.533 4.267 12.8 4.267 0 4.267 0 8.533 0 8.533 0 4.267 0 12.8 4.267 17.067v4.267c0 4.267 4.267 8.533 4.267 12.8 0 0 0 4.267 4.267 4.267 4.267 4.267 4.267 8.533 8.533 17.067 0 0 0 4.267-4.267 4.267-4.267 21.333-17.067 38.4-25.6 55.467z" />
<glyph unicode="&#xe91c;" glyph-name="Globe-4" data-tags="Globe-4" d="M413.867 840.533c-8.533 38.4-42.667 64-81.067 64-12.8 0-21.333 0-34.133-4.267-34.133-17.067-72.533-38.4-102.4-59.733-21.333-17.067-34.133-38.4-34.133-64s8.533-46.933 29.867-64c17.067-12.8 17.067-34.133 4.267-51.2-12.8-21.333-25.6-42.667-34.133-64s-29.867-29.867-51.2-21.333c-8.533 4.267-17.067 4.267-25.6 4.267-38.4 0-72.533-29.867-81.067-72.533-4.267-17.067-4.267-38.4-4.267-59.733s0-42.667 4.267-59.733c8.533-51.2 59.733-85.333 106.667-64 17.067 8.533 38.4-4.267 46.933-21.333 12.8-25.6 25.6-46.933 38.4-68.267 12.8-17.067 8.533-38.4-4.267-51.2-17.067-17.067-29.867-38.4-29.867-64s12.8-46.933 34.133-64c34.133-25.6 68.267-46.933 106.667-59.733 8.533-4.267 21.333-8.533 29.867-8.533 38.4 0 72.533 29.867 81.067 68.267 4.267 21.333 21.333 34.133 42.667 29.867 4.267 0 8.533 0 17.067 0v213.333c-72.533 8.533-128 72.533-128 145.067s55.467 136.533 128 145.067v213.333c-4.267 0-8.533 0-17.067 0-21.333 4.267-42.667 17.067-42.667 38.4zM768 426.667h-256v-213.333h213.333c25.6 59.733 38.4 132.267 42.667 213.333zM708.267 170.667h-196.267v-170.667c72.533 0 145.067 64 196.267 170.667zM725.333 682.667h-213.333v-213.333h256c-4.267 81.067-17.067 153.6-42.667 213.333zM772.267 213.333h192c34.133 64 55.467 136.533 59.733 213.333h-213.333c-4.267-76.8-17.067-149.333-38.4-213.333zM529.067-42.667c0 0 4.267 0 8.533 0 166.4 0 315.733 85.333 405.333 213.333h-183.467c-55.467-119.467-140.8-204.8-230.4-213.333zM708.267 725.333v0 0zM708.267 725.333c-51.2 106.667-123.733 170.667-196.267 170.667v-170.667h196.267zM755.2 725.333h183.467c-89.6 128-234.667 213.333-405.333 213.333-4.267 0-4.267 0-8.533 0 93.867-8.533 179.2-93.867 230.4-213.333zM810.667 469.333h213.333c-4.267 76.8-25.6 149.333-59.733 213.333h-192c21.333-64 34.133-136.533 38.4-213.333z" />
<glyph unicode="&#xe91d;" glyph-name="Gold-Bars1" data-tags="Gold-Bars 1" d="M576 362.667c-17.067 38.4-55.467 64-98.133 64h-273.067c-42.667 0-81.067-25.6-98.133-64l-106.667-247.467c-4.267-8.533 0-12.8 0-21.333s8.533-8.533 17.067-8.533h640c12.8 0 21.333 8.533 21.333 21.333 0 4.267 0 8.533-4.267 12.8l-98.133 243.2zM448 298.667h-230.4l-46.933-115.2c-4.267-8.533-12.8-12.8-21.333-12.8-4.267 0-4.267 0-8.533 0-12.8 4.267-17.067 17.067-12.8 29.867l55.467 128c4.267 8.533 12.8 12.8 21.333 12.8h243.2c12.8 0 21.333-8.533 21.333-21.333s-8.533-21.333-21.333-21.333zM192 469.333h640c12.8 0 21.333 8.533 21.333 21.333 0 4.267 0 8.533-4.267 12.8l-102.4 243.2c-17.067 38.4-55.467 64-98.133 64h-273.067c-42.667 0-81.067-25.6-98.133-64l-106.667-247.467c-4.267-8.533 0-12.8 0-21.333s12.8-8.533 21.333-8.533zM298.667 584.533l55.467 128c4.267 8.533 12.8 12.8 21.333 12.8h243.2c12.8 0 21.333-8.533 21.333-21.333s-8.533-21.333-21.333-21.333h-230.4l-46.933-115.2c-4.267-8.533-12.8-12.8-21.333-12.8-4.267 0-4.267 0-8.533 0-12.8 4.267-17.067 17.067-12.8 29.867zM1024 115.2l-106.667 247.467c-17.067 38.4-55.467 64-98.133 64h-192c-8.533 0-12.8-4.267-17.067-12.8s-4.267-12.8 0-21.333c4.267-4.267 4.267-8.533 8.533-17.067l17.067-38.4h157.867c12.8 0 21.333-8.533 21.333-21.333s-8.533-21.333-21.333-21.333h-140.8l72.533-166.4c4.267-8.533 4.267-12.8 4.267-25.6 0-4.267 0-8.533 4.267-8.533 4.267-8.533 12.8-12.8 21.333-12.8h256c8.533 0 12.8 4.267 17.067 8.533-4.267 12.8-4.267 17.067-4.267 25.6z" />
<glyph unicode="&#xe91e;" glyph-name="Gold-Bars2" data-tags="Gold-Bars 2" d="M59.733 298.667l17.067 64c12.8 46.933 46.933 81.067 89.6 98.133l192 72.533c-8.533 25.6-34.133 42.667-59.733 42.667h-21.333c-12.8 0-21.333 8.533-21.333 21.333s8.533 21.333 21.333 21.333h21.333c42.667 0 85.333-29.867 98.133-68.267l251.733 98.133c25.6 8.533 55.467 17.067 85.333 17.067h119.467c17.067 0 34.133-4.267 55.467-12.8 4.267 0 4.267 0 8.533 0 12.8 0 21.333 8.533 21.333 21.333 0 4.267 0 8.533-4.267 12.8l-21.333 72.533c-12.8 42.667-55.467 72.533-102.4 72.533h-115.2c-25.6 0-46.933-4.267-68.267-12.8l-486.4-187.733c-34.133-12.8-55.467-38.4-68.267-68.267l-72.533-256c-4.267-8.533 0-17.067 4.267-21.333 8.533-8.533 12.8-8.533 17.067-8.533s4.267 0 8.533 0l17.067 8.533c4.267 4.267 8.533 8.533 12.8 12.8zM1024 302.933l-68.267 234.667c-12.8 51.2-55.467 81.067-102.4 81.067h-115.2c-25.6 0-46.933-4.267-68.267-12.8l-486.4-187.733c-34.133-12.8-55.467-38.4-68.267-68.267l-4.267-21.333-68.267-238.933c0-4.267 0-12.8 0-17.067v0 0 0 0c4.267-4.267 8.533-8.533 12.8-8.533v0h430.933c4.267 0 4.267 0 8.533 0l512 213.333c12.8 4.267 21.333 17.067 17.067 25.6zM473.6 149.333h-4.267c-8.533 0-17.067 4.267-21.333 17.067l-46.933 149.333c-4.267 29.867-29.867 46.933-59.733 46.933h-21.333c-12.8 0-21.333 8.533-21.333 21.333s8.533 21.333 21.333 21.333h21.333c46.933 0 89.6-29.867 102.4-76.8l46.933-149.333c4.267-12.8-4.267-25.6-17.067-29.867zM840.533 490.667l-341.333-128c-4.267 0-4.267 0-8.533 0-8.533 0-17.067 4.267-21.333 12.8-4.267 12.8 0 21.333 12.8 25.6l341.333 128c12.8 4.267 21.333 0 25.6-12.8 8.533-8.533 0-21.333-8.533-25.6z" />
<glyph unicode="&#xe91f;" glyph-name="Handshake" data-tags="Handshake" d="M247.467 699.733c-34.133 34.133-179.2 42.667-226.133 46.933-4.267 0-8.533 0-12.8-4.267s-8.533-12.8-8.533-17.067v-384c0-12.8 8.533-21.333 21.333-21.333h128c8.533 0 17.067 4.267 21.333 12.8 0 12.8 76.8 238.933 85.333 349.867 0 4.267 0 12.8-8.533 17.067zM588.8 640c-76.8 34.133-110.933 17.067-179.2-51.2-29.867-29.867-51.2-72.533-46.933-89.6 0-4.267 0-4.267 8.533-8.533 21.333-8.533 51.2-12.8 81.067 34.133 4.267 4.267 8.533 8.533 17.067 8.533 12.8 0 17.067 4.267 29.867 8.533 8.533 4.267 17.067 8.533 29.867 12.8 4.267 0 4.267 0 8.533 0s12.8-4.267 17.067-4.267c21.333-21.333 59.733-51.2 98.133-85.333 59.733-46.933 119.467-98.133 149.333-136.533h4.267c-29.867 85.333-81.067 230.4-102.4 268.8-42.667 12.8-81.067 29.867-115.2 42.667zM1002.667 704c-166.4 0-260.267-42.667-264.533-42.667-4.267-4.267-8.533-8.533-12.8-12.8 0-4.267 0-12.8 4.267-17.067 25.6-42.667 110.933-277.333 123.733-337.067 4.267-8.533 12.8-17.067 21.333-17.067h128c12.8 0 21.333 8.533 21.333 21.333v384c0 12.8-8.533 21.333-21.333 21.333zM618.667 430.933c-34.133 29.867-68.267 55.467-93.867 76.8-4.267-4.267-12.8-4.267-12.8-8.533-12.8-4.267-17.067-8.533-34.133-8.533-34.133-42.667-76.8-59.733-123.733-42.667-21.333 4.267-34.133 21.333-38.4 38.4-8.533 42.667 29.867 102.4 59.733 132.267h-85.333c-17.067-85.333-46.933-196.267-68.267-256 17.067-17.067 34.133-38.4 46.933-46.933 81.067-68.267 174.933-136.533 192-149.333 12.8-8.533 38.4-17.067 51.2-17.067 4.267 0 8.533 0 12.8 0l-68.267 68.267c-8.533 8.533-8.533 21.333 0 29.867s21.333 8.533 29.867 0l85.333-85.333c8.533-8.533 17.067-4.267 25.6-4.267 12.8 4.267 17.067 12.8 21.333 25.6l-98.133 98.133c-8.533 8.533-8.533 21.333 0 29.867s21.333 8.533 29.867 0l106.667-106.667c4.267-4.267 21.333-4.267 34.133 0 4.267 4.267 12.8 8.533 17.067 17.067l-119.467 119.467c-8.533 8.533-8.533 21.333 0 29.867s21.333 8.533 29.867 0l123.733-123.733c8.533-4.267 17.067 0 25.6 4.267 4.267 4.267 12.8 17.067 4.267 34.133-17.067 38.4-89.6 93.867-153.6 145.067z" />
<glyph unicode="&#xe920;" glyph-name="Home-Bag" data-tags="Home-Bag" d="M981.333 682.667h-192v106.667c0 81.067-68.267 149.333-149.333 149.333h-256c-81.067 0-149.333-68.267-149.333-149.333v-106.667h-192c-12.8 0-21.333-8.533-21.333-21.333v-682.667c0-12.8 8.533-21.333 21.333-21.333h938.667c12.8 0 21.333 8.533 21.333 21.333v682.667c0 12.8-8.533 21.333-21.333 21.333zM704 311.467c-4.267-8.533-12.8-12.8-21.333-12.8h-21.333v-149.333c0-12.8-8.533-21.333-21.333-21.333h-85.333c-12.8 0-21.333 8.533-21.333 21.333v106.667h-42.667v-106.667c0-12.8-8.533-21.333-21.333-21.333h-85.333c-12.8 0-21.333 8.533-21.333 21.333v149.333h-21.333c-8.533 0-17.067 4.267-21.333 12.8s0 17.067 4.267 21.333l170.667 170.667c8.533 8.533 21.333 8.533 29.867 0l170.667-170.667c8.533-4.267 8.533-12.8 8.533-21.333zM746.667 533.333c0-12.8-8.533-21.333-21.333-21.333s-21.333 8.533-21.333 21.333v149.333h-384v-149.333c0-12.8-8.533-21.333-21.333-21.333s-21.333 8.533-21.333 21.333v256c0 59.733 46.933 106.667 106.667 106.667h256c59.733 0 106.667-46.933 106.667-106.667v-256z" />
<glyph unicode="&#xe921;" glyph-name="Hot-Offer" data-tags="Hot-Offer" d="M277.333 512c-12.8 0-21.333-8.533-21.333-21.333v-192h-213.333v192c0 12.8-8.533 21.333-21.333 21.333s-21.333-8.533-21.333-21.333v-426.667c0-12.8 8.533-21.333 21.333-21.333s21.333 8.533 21.333 21.333v192h213.333v-192c0-12.8 8.533-21.333 21.333-21.333s21.333 8.533 21.333 21.333v426.667c0 12.8-8.533 21.333-21.333 21.333zM640 452.267v59.733c0 8.533-4.267 12.8-8.533 17.067-4.267 0-25.6 17.067-51.2 21.333 8.533 55.467 46.933 89.6 85.333 89.6 4.267 0 8.533 0 12.8 4.267 0-12.8 4.267-34.133 4.267-68.267 0-12.8 8.533-21.333 21.333-21.333s21.333 8.533 21.333 21.333c0 46.933 4.267 72.533 21.333 85.333 12.8 12.8 38.4 21.333 85.333 21.333 12.8 0 21.333 8.533 21.333 21.333s-8.533 21.333-21.333 21.333c-46.933 0-72.533 4.267-85.333 21.333-17.067 12.8-21.333 38.4-21.333 85.333 0 12.8-8.533 21.333-21.333 21.333s-21.333-8.533-21.333-21.333c0-46.933-4.267-72.533-21.333-85.333-12.8-12.8-38.4-21.333-85.333-21.333-12.8 0-21.333-8.533-21.333-21.333s8.533-21.333 21.333-21.333c25.6 0 42.667 0 55.467-4.267-46.933-12.8-89.6-59.733-98.133-123.733-29.867-4.267-51.2-21.333-55.467-21.333-4.267-4.267-8.533-12.8-8.533-17.067v-59.733c-76.8-34.133-128-106.667-128-196.267 0-119.467 93.867-213.333 213.333-213.333s213.333 93.867 213.333 213.333c0 81.067-51.2 157.867-128 192zM554.667 341.333c-46.933 0-85.333-38.4-85.333-85.333 0-12.8-8.533-21.333-21.333-21.333s-21.333 8.533-21.333 21.333c0 72.533 55.467 128 128 128 12.8 0 21.333-8.533 21.333-21.333s-8.533-21.333-21.333-21.333zM1002.667 512h-256c-12.8 0-21.333-8.533-21.333-21.333s8.533-21.333 21.333-21.333h106.667v-405.333c0-12.8 8.533-21.333 21.333-21.333s21.333 8.533 21.333 21.333v405.333h106.667c12.8 0 21.333 8.533 21.333 21.333s-8.533 21.333-21.333 21.333z" />
<glyph unicode="&#xe922;" glyph-name="Inshurance-2" data-tags="Inshurance-2" d="M896 832c-115.2 0-277.333 29.867-366.933 123.733-8.533 8.533-21.333 8.533-29.867 0-93.867-93.867-256-123.733-371.2-123.733-12.8 0-21.333-8.533-21.333-21.333v-426.667c0-162.133 230.4-392.533 396.8-448 4.267 0 4.267 0 8.533 0s4.267 0 8.533 0c170.667 55.467 396.8 285.867 396.8 448v426.667c0 12.8-8.533 21.333-21.333 21.333zM832 384v0c0-102.4-170.667-298.667-311.467-362.667-4.267 0-4.267 0-8.533 0s-4.267 0-8.533 0c-140.8 64-311.467 256-311.467 362.667v341.333c0 12.8 8.533 21.333 17.067 21.333 102.4 12.8 209.067 51.2 290.133 102.4 8.533 4.267 17.067 4.267 25.6 0 81.067-55.467 187.733-93.867 290.133-102.4 12.8 0 17.067-8.533 17.067-21.333 0 0 0-341.333 0-341.333zM576 597.333c0-35.346-28.654-64-64-64s-64 28.654-64 64c0 35.346 28.654 64 64 64s64-28.654 64-64zM362.667 362.667h294.4c-8.533 72.533-72.533 128-149.333 128s-132.267-55.467-145.067-128zM234.667 708.267v-324.267c0-76.8 145.067-256 277.333-320 132.267 64 277.333 243.2 277.333 320v324.267c-98.133 12.8-196.267 51.2-277.333 98.133-81.067-51.2-179.2-85.333-277.333-98.133zM618.667 597.333c0-29.867-12.8-59.733-34.133-76.8 68.267-29.867 119.467-98.133 119.467-179.2 0-12.8-8.533-21.333-21.333-21.333h-341.333c-12.8 0-21.333 8.533-21.333 21.333 0 81.067 51.2 149.333 119.467 179.2-21.333 17.067-34.133 46.933-34.133 76.8 0 59.733 46.933 106.667 106.667 106.667s106.667-46.933 106.667-106.667z" />
<glyph unicode="&#xe923;" glyph-name="Inshurance" data-tags="Inshurance" d="M234.667 708.267v-324.267c0-76.8 145.067-256 277.333-320 132.267 64 277.333 243.2 277.333 320v324.267c-98.133 12.8-196.267 51.2-277.333 98.133-81.067-51.2-179.2-85.333-277.333-98.133zM533.333 682.667v-21.333c68.267-8.533 123.733-46.933 128-98.133 0-12.8-8.533-21.333-21.333-21.333s-21.333 8.533-21.333 21.333c-4.267 29.867-38.4 55.467-85.333 59.733v-128c42.667-8.533 128-29.867 128-102.4 0-55.467-55.467-98.133-128-106.667v-21.333c0-12.8-8.533-21.333-21.333-21.333s-21.333 8.533-21.333 21.333v12.8c-68.267 8.533-123.733 46.933-128 98.133 0 12.8 8.533 21.333 21.333 21.333s21.333-8.533 21.333-21.333c4.267-29.867 38.4-55.467 85.333-59.733v128c-42.667 8.533-128 29.867-128 102.4 0 55.467 55.467 98.133 128 106.667v29.867c0 12.8 8.533 21.333 21.333 21.333s21.333-8.533 21.333-21.333zM405.333 554.667c0-38.4 51.2-51.2 85.333-59.733v123.733c-46.933-8.533-85.333-34.133-85.333-64zM618.667 384c0 38.4-51.2 51.2-85.333 59.733v-123.733c46.933 8.533 85.333 34.133 85.333 64zM896 832c-115.2 0-277.333 29.867-366.933 123.733-8.533 8.533-21.333 8.533-29.867 0-93.867-93.867-256-123.733-371.2-123.733-12.8 0-21.333-8.533-21.333-21.333v-426.667c0-162.133 230.4-392.533 396.8-448 4.267 0 4.267 0 8.533 0s4.267 0 8.533 0c170.667 55.467 396.8 285.867 396.8 448v426.667c0 12.8-8.533 21.333-21.333 21.333zM832 384v0c0-102.4-170.667-298.667-311.467-362.667-4.267 0-4.267 0-8.533 0s-4.267 0-8.533 0c-140.8 64-311.467 256-311.467 362.667v341.333c0 12.8 8.533 21.333 17.067 21.333 102.4 12.8 209.067 51.2 290.133 102.4 8.533 4.267 17.067 4.267 25.6 0 81.067-55.467 187.733-93.867 290.133-102.4 12.8 0 17.067-8.533 17.067-21.333 0 0 0-341.333 0-341.333z" />
<glyph unicode="&#xe924;" glyph-name="Key-ToSuccess" data-tags="Key-To Success" d="M985.6 486.4c29.867 38.4 29.867 89.6 0 119.467s-68.267 25.6-119.467-4.267l-55.467 64c21.333 12.8 42.667 12.8 55.467 4.267 8.533-8.533 21.333-8.533 29.867 0s8.533 21.333-4.267 29.867c-29.867 25.6-76.8 21.333-115.2-4.267l-4.267 4.267c-4.267 4.267-17.067 4.267-25.6 0s-8.533-21.333 0-29.867l4.267-4.267c-29.867-38.4-29.867-89.6 0-119.467s68.267-25.6 119.467 4.267l59.733-59.733c-21.333-12.8-42.667-12.8-55.467-4.267-8.533 8.533-21.333 8.533-29.867-4.267s-8.533-21.333 4.267-29.867c12.8-12.8 29.867-17.067 51.2-17.067s42.667 8.533 64 21.333l4.267-4.267c4.267-4.267 8.533-4.267 17.067-4.267s12.8 0 17.067 4.267c-4.267 8.533-4.267 25.6-17.067 34.133v0zM960 576c12.8-12.8 12.8-38.4 0-59.733l-55.467 55.467c21.333 12.8 42.667 17.067 55.467 4.267zM776.533 576c-12.8 12.8-12.8 38.4 0 59.733l55.467-55.467c-25.6-12.8-42.667-17.067-55.467-4.267zM695.467 546.133c-25.6 51.2-12.8 115.2 38.4 166.4 46.933 46.933 115.2 59.733 166.4 34.133l46.933 46.933c8.533 8.533 8.533 21.333 0 29.867l-85.333 85.333c-8.533 8.533-21.333 8.533-29.867 4.267l-409.6-409.6c-38.4 17.067-85.333 29.867-132.267 29.867-153.6 0-277.333-123.733-277.333-277.333s128-277.333 277.333-277.333 277.333 123.733 277.333 277.333c0 46.933-12.8 89.6-34.133 132.267 0 0 4.267 0 4.267 4.267l157.867 153.6z" />
<glyph unicode="&#xe925;" glyph-name="Master-Card2" data-tags="Master-Card 2" d="M874.667 768h-725.333c-81.067 0-149.333-68.267-149.333-149.333v-341.333c0-81.067 68.267-149.333 149.333-149.333h725.333c81.067 0 149.333 68.267 149.333 149.333v341.333c0 81.067-68.267 149.333-149.333 149.333zM661.333 170.667c-51.2 0-102.4 17.067-149.333 42.667-8.533-4.267-17.067-8.533-25.6-12.8-17.067-8.533-25.6-12.8-38.4-17.067s-25.6-8.533-38.4-8.533h-8.533c-12.8 0-25.6-4.267-38.4-4.267s-25.6 0-38.4 4.267h-8.533c-12.8 0-25.6 4.267-38.4 8.533s-25.6 8.533-38.4 17.067h-4.267c-51.2 25.6-93.867 68.267-119.467 119.467-8.533 17.067-12.8 34.133-21.333 51.2-4.267 25.6-8.533 51.2-8.533 76.8s4.267 51.2 12.8 76.8c4.267 17.067 8.533 34.133 17.067 51.2 25.6 51.2 68.267 93.867 123.733 119.467 12.8 8.533 25.6 12.8 38.4 17.067s25.6 8.533 38.4 8.533h8.533c12.8 0 25.6 4.267 38.4 4.267s25.6 0 38.4-4.267h8.533c12.8 0 25.6-4.267 38.4-8.533s25.6-8.533 38.4-17.067h4.267c8.533-4.267 17.067-8.533 25.6-12.8 42.667 29.867 93.867 42.667 149.333 42.667 153.6 0 277.333-123.733 277.333-277.333-4.267-153.6-128-277.333-281.6-277.333zM768 657.067c0 0-4.267 0 0 0-12.8 4.267-21.333 8.533-34.133 12.8v0c-8.533 4.267-21.333 4.267-29.867 8.533-4.267 0-4.267 0-8.533 0-12.8 0-21.333 4.267-34.133 4.267s-21.333 0-34.133-4.267c-4.267 0-4.267 0-8.533 0-12.8 0-21.333-4.267-29.867-8.533v0c-8.533-4.267-21.333-8.533-29.867-12.8 0 0 0 0-4.267 0-17.067-8.533-29.867-17.067-42.667-29.867-42.667 34.133-93.867 55.467-149.333 55.467-128 0-234.667-106.667-234.667-234.667s106.667-234.667 234.667-234.667c55.467 0 106.667 21.333 149.333 55.467 12.8-12.8 29.867-21.333 42.667-29.867 0 0 0 0 4.267 0 8.533-4.267 21.333-8.533 29.867-12.8v0c8.533-4.267 21.333-4.267 29.867-8.533 4.267 0 4.267 0 8.533 0 12.8 0 21.333-4.267 34.133-4.267s21.333 0 34.133 4.267c4.267 0 4.267 0 8.533 0 12.8 0 21.333 4.267 29.867 8.533v0c8.533 4.267 21.333 8.533 29.867 12.8 0 0 0 0 4.267 0 42.667 21.333 81.067 59.733 102.4 102.4 8.533 12.8 12.8 29.867 17.067 42.667 4.267 21.333 8.533 42.667 8.533 64s-4.267 42.667-8.533 64c-4.267 12.8-8.533 29.867-17.067 42.667-21.333 42.667-59.733 81.067-102.4 102.4zM661.333 640c46.933 0 85.333-17.067 119.467-42.667h-238.933c34.133 25.6 72.533 42.667 119.467 42.667zM661.333 256c-46.933 0-85.333 17.067-119.467 42.667h238.933c-34.133-25.6-72.533-42.667-119.467-42.667zM819.2 341.333h-320c-8.533 8.533-12.8 21.333-17.067 34.133 0 4.267 0 8.533-4.267 8.533h358.4c0-17.067-8.533-29.867-17.067-42.667zM853.333 448c0-8.533 0-12.8-4.267-21.333h-379.733c0 8.533 0 12.8 0 21.333s0 12.8 4.267 21.333h379.733c0-8.533 0-12.8 0-21.333zM482.133 512c0 4.267 0 8.533 4.267 8.533 4.267 12.8 8.533 21.333 17.067 34.133h320c8.533-12.8 17.067-25.6 21.333-42.667h-362.667z" />
<glyph unicode="&#xe926;" glyph-name="Master-Card" data-tags="Master-Card" d="M704 768c-68.267 0-136.533-21.333-192-64-55.467 42.667-123.733 64-192 64-174.933 0-320-145.067-320-320s145.067-320 320-320c68.267 0 136.533 21.333 192 64 55.467-38.4 123.733-64 192-64 179.2 0 320 145.067 320 320s-145.067 320-320 320zM960 341.333h-337.067c4.267 12.8 8.533 29.867 12.8 42.667h337.067c-4.267-12.8-8.533-29.867-12.8-42.667zM512 247.467c-17.067 17.067-29.867 34.133-42.667 51.2h85.333c-12.8-17.067-25.6-38.4-42.667-51.2zM448 341.333v0c-8.533 12.8-12.8 29.867-17.067 42.667h162.133c-4.267-12.8-8.533-29.867-12.8-42.667h-132.267zM448 554.667v0h132.267c4.267-12.8 12.8-29.867 12.8-42.667h-162.133c4.267 12.8 8.533 29.867 17.067 42.667zM512 648.533c17.067-17.067 29.867-34.133 42.667-51.2h-85.333c12.8 17.067 25.6 38.4 42.667 51.2zM972.8 512h-337.067c-4.267 12.8-8.533 29.867-12.8 42.667h337.067c4.267-12.8 8.533-29.867 12.8-42.667zM426.667 469.333h170.667c0-8.533 0-12.8 0-21.333s0-12.8 0-21.333h-170.667c0 8.533 0 12.8 0 21.333-4.267 8.533 0 12.8 0 21.333v0zM640 426.667c0 8.533 0 12.8 0 21.333s0 12.8 0 21.333h341.333c0-8.533 0-12.8 0-21.333s0-12.8 0-21.333h-341.333zM938.667 597.333h-332.8c-8.533 12.8-17.067 29.867-25.6 42.667h315.733c4.267 0 4.267 0 4.267 0 17.067-12.8 25.6-25.6 38.4-42.667zM704 725.333c55.467 0 106.667-17.067 149.333-42.667h-298.667c46.933 25.6 93.867 42.667 149.333 42.667zM554.667 213.333h294.4c-42.667-25.6-93.867-42.667-149.333-42.667-51.2 0-98.133 17.067-145.067 42.667zM900.267 256h-324.267c8.533 12.8 21.333 29.867 25.6 42.667h337.067c-12.8-17.067-21.333-29.867-38.4-42.667z" />
<glyph unicode="&#xe927;" glyph-name="Mobile-Shopping1" data-tags="Mobile-Shopping 1" d="M486.4 268.8c0 4.267-4.267 12.8-12.8 12.8-17.067 8.533-29.867 25.6-34.133 42.667l-68.267 277.333c-4.267 8.533-12.8 17.067-21.333 17.067h-17.067c-38.4 0-64 29.867-64 64s25.6 64 64 64h-213.333v-554.667h469.333c-51.2 0-89.6 34.133-102.4 76.8zM469.333 712.533c4.267-4.267 12.8-8.533 21.333-8.533h247.467c12.8 0 21.333 8.533 21.333 21.333v21.333h-341.333c21.333 0 42.667-12.8 51.2-34.133zM759.467 810.667c0 81.067-68.267 149.333-149.333 149.333h-341.333c-85.333 0-149.333-68.267-149.333-149.333v-21.333h640v21.333zM482.133 832h-85.333c-12.8 0-21.333 8.533-21.333 21.333s8.533 21.333 21.333 21.333h85.333c12.8 0 21.333-8.533 21.333-21.333s-12.8-21.333-21.333-21.333zM610.133 832c-12.8 0-21.333 8.533-21.333 21.333s8.533 21.333 21.333 21.333v0c12.8 0 21.333-8.533 21.333-21.333s-8.533-21.333-21.333-21.333zM823.467 298.667c0-35.346-28.654-64-64-64s-64 28.654-64 64c0 35.346 28.654 64 64 64s64-28.654 64-64zM738.133 192c-21.333 4.267-38.4 12.8-55.467 25.6-8.533 8.533-21.333 8.533-29.867 0-21.333-17.067-46.933-29.867-72.533-29.867h157.867c4.267 4.267 4.267 4.267 0 4.267zM119.467 85.333c0-81.067 68.267-149.333 149.333-149.333h341.333c81.067 0 149.333 68.267 149.333 149.333v64h-640c0 0 0-64 0-64zM439.467 106.667c25.6 0 42.667-17.067 42.667-42.667s-17.067-42.667-42.667-42.667-42.667 17.067-42.667 42.667 17.067 42.667 42.667 42.667zM900.267 652.8c-4.267 4.267-8.533 8.533-12.8 8.533h-443.733l-8.533 25.6c0 8.533-8.533 17.067-17.067 17.067h-85.333c-12.8 0-21.333-8.533-21.333-21.333s8.533-21.333 21.333-21.333h68.267l81.067-324.267c4.267-8.533 12.8-17.067 21.333-17.067h4.267c12.8 4.267 17.067 12.8 17.067 25.6l-17.067 59.733 337.067 38.4c8.533 0 17.067 8.533 17.067 17.067l42.667 170.667c4.267 8.533 0 17.067-4.267 21.333zM652.8 298.667c0-35.346-28.654-64-64-64s-64 28.654-64 64c0 35.346 28.654 64 64 64s64-28.654 64-64z" />
<glyph unicode="&#xe928;" glyph-name="Mobile-Shopping2" data-tags="Mobile-Shopping 2" d="M106.667 42.667c0-59.733 46.933-106.667 106.667-106.667h512c59.733 0 106.667 46.933 106.667 106.667v64h-725.333v-64zM426.667 64h85.333c12.8 0 21.333-8.533 21.333-21.333s-8.533-21.333-21.333-21.333h-85.333c-12.8 0-21.333 8.533-21.333 21.333s8.533 21.333 21.333 21.333zM913.067 652.8c-4.267 4.267-8.533 8.533-17.067 8.533h-443.733l-8.533 25.6c0 8.533-8.533 17.067-17.067 17.067h-85.333c-12.8 0-21.333-8.533-21.333-21.333s8.533-21.333 21.333-21.333h68.267l81.067-324.267c4.267-8.533 12.8-17.067 21.333-17.067h4.267c12.8 4.267 17.067 12.8 17.067 25.6l-17.067 59.733 337.067 38.4c8.533 0 17.067 8.533 17.067 17.067l42.667 170.667c4.267 8.533 4.267 17.067 0 21.333zM802.133 200.533c-42.667-12.8-76.8-4.267-106.667 21.333-8.533 8.533-21.333 8.533-29.867 0-17.067-21.333-42.667-29.867-68.267-29.867-46.933 0-89.6 34.133-102.4 76.8 0 4.267-4.267 12.8-12.8 12.8-17.067 8.533-29.867 25.6-34.133 42.667l-68.267 277.333c0 8.533-8.533 17.067-21.333 17.067h-17.067c-34.133 0-64 29.867-64 64s29.867 64 64 64h85.333c21.333 0 42.667-12.8 55.467-34.133 4.267-4.267 8.533-8.533 17.067-8.533h311.467c12.8 0 21.333 8.533 21.333 21.333v128c0 59.733-46.933 106.667-106.667 106.667h-512c-59.733 0-106.667-46.933-106.667-106.667v-704h725.333v29.867c0 8.533-4.267 12.8-8.533 17.067s-12.8 4.267-21.333 4.267zM213.333 832c-12.8 0-21.333 8.533-21.333 21.333s8.533 21.333 21.333 21.333 21.333-8.533 21.333-21.333-8.533-21.333-21.333-21.333zM832 298.667c0-35.346-28.654-64-64-64s-64 28.654-64 64c0 35.346 28.654 64 64 64s64-28.654 64-64zM661.333 298.667c0-35.346-28.654-64-64-64s-64 28.654-64 64c0 35.346 28.654 64 64 64s64-28.654 64-64z" />
<glyph unicode="&#xe929;" glyph-name="Money-Bag" data-tags="Money-Bag" d="M682.667 704h-341.333c-12.8 0-21.333-8.533-21.333-21.333s8.533-21.333 21.333-21.333h341.333c12.8 0 21.333 8.533 21.333 21.333s-8.533 21.333-21.333 21.333zM324.267 759.467c0-8.533 8.533-12.8 17.067-12.8h341.333c8.533 0 17.067 4.267 17.067 12.8l85.333 170.667c4.267 8.533 4.267 17.067-4.267 25.6-4.267 4.267-12.8 4.267-21.333 0l-157.867-76.8-72.533 72.533c-8.533 8.533-21.333 8.533-29.867 0l-76.8-72.533-157.867 76.8c-8.533 4.267-17.067 4.267-25.6 0s-4.267-17.067 0-25.6l85.333-170.667zM699.733 610.133c-4.267 4.267-12.8 8.533-17.067 8.533h-341.333c-4.267 0-12.8-4.267-17.067-8.533-8.533-8.533-217.6-230.4-217.6-354.133 0-174.933 183.467-320 405.333-320s405.333 145.067 405.333 320c0 123.733-209.067 345.6-217.6 354.133zM533.333 106.667v-21.333c0-12.8-8.533-21.333-21.333-21.333s-21.333 8.533-21.333 21.333v21.333c-46.933 8.533-81.067 38.4-85.333 76.8 0 12.8 8.533 21.333 21.333 21.333s21.333-8.533 21.333-21.333c0-17.067 21.333-34.133 42.667-38.4v85.333c-55.467 12.8-85.333 42.667-85.333 81.067 0 42.667 38.4 76.8 85.333 85.333v21.333c0 12.8 8.533 21.333 21.333 21.333s21.333-8.533 21.333-21.333v-12.8c46.933-8.533 81.067-38.4 85.333-76.8 0-12.8-8.533-21.333-21.333-21.333s-21.333 8.533-21.333 21.333c0 17.067-21.333 34.133-42.667 38.4v-85.333c55.467-12.8 85.333-42.667 85.333-81.067 0-51.2-38.4-85.333-85.333-93.867zM533.333 230.4v-76.8c25.6 4.267 42.667 21.333 42.667 38.4s-12.8 29.867-42.667 38.4zM448 320c0-17.067 12.8-29.867 42.667-38.4v76.8c-25.6-4.267-42.667-21.333-42.667-38.4z" />
<glyph unicode="&#xe92a;" glyph-name="Money-Network" data-tags="Money-Network" d="M230.4 426.667h68.267c12.8 0 21.333 8.533 21.333 21.333s-8.533 21.333-21.333 21.333h-68.267c-8.533 46.933-51.2 85.333-102.4 85.333-59.733 0-106.667-46.933-106.667-106.667s46.933-106.667 106.667-106.667c51.2 0 93.867 38.4 102.4 85.333zM128 384c-34.133 0-64 29.867-64 64s29.867 64 64 64 64-29.867 64-64-29.867-64-64-64zM768 256c-21.333 0-42.667-8.533-59.733-17.067l-34.133 34.133c-8.533 8.533-21.333 8.533-29.867 0s-8.533-21.333 0-29.867l34.133-34.133c-12.8-17.067-17.067-38.4-17.067-59.733 0-59.733 46.933-106.667 106.667-106.667s106.667 46.933 106.667 106.667-46.933 106.667-106.667 106.667zM768 85.333c-34.133 0-64 29.867-64 64s29.867 64 64 64 64-29.867 64-64-29.867-64-64-64zM896 554.667c-51.2 0-93.867-38.4-102.4-85.333h-68.267c-12.8 0-21.333-8.533-21.333-21.333s8.533-21.333 21.333-21.333h68.267c8.533-46.933 51.2-85.333 102.4-85.333 59.733 0 106.667 46.933 106.667 106.667s-46.933 106.667-106.667 106.667zM896 384c-34.133 0-64 29.867-64 64s29.867 64 64 64 64-29.867 64-64-29.867-64-64-64zM345.6 686.933c8.533 17.067 17.067 38.4 17.067 59.733 0 59.733-46.933 106.667-106.667 106.667s-106.667-46.933-106.667-106.667 46.933-106.667 106.667-106.667c21.333 0 42.667 8.533 59.733 17.067l34.133-34.133c0-4.267 8.533-4.267 12.8-4.267s12.8 0 17.067 4.267c4.267 8.533 4.267 25.6 0 34.133l-34.133 29.867zM192 746.667c0 34.133 29.867 64 64 64s64-29.867 64-64-29.867-64-64-64-64 29.867-64 64zM345.6 273.067l-34.133-34.133c-12.8 8.533-34.133 17.067-55.467 17.067-59.733 0-106.667-46.933-106.667-106.667s46.933-106.667 106.667-106.667 106.667 46.933 106.667 106.667c0 21.333-8.533 42.667-17.067 59.733l34.133 34.133c8.533 8.533 8.533 21.333 0 29.867-8.533 4.267-25.6 4.267-34.133 0zM256 85.333c-34.133 0-64 29.867-64 64s29.867 64 64 64 64-29.867 64-64-29.867-64-64-64zM661.333 618.667c4.267 0 12.8 0 17.067 4.267l34.133 34.133c12.8-8.533 34.133-17.067 55.467-17.067 59.733 0 106.667 46.933 106.667 106.667s-46.933 106.667-106.667 106.667-106.667-46.933-106.667-106.667c0-21.333 8.533-42.667 17.067-59.733l-34.133-34.133c-8.533-8.533-8.533-21.333 0-29.867 4.267-4.267 12.8-4.267 17.067-4.267zM768 810.667c34.133 0 64-29.867 64-64s-29.867-64-64-64-64 29.867-64 64 29.867 64 64 64zM533.333 465.067v85.333c25.6-4.267 42.667-21.333 42.667-38.4 0-12.8 12.8-21.333 21.333-21.333 12.8 0 21.333 12.8 21.333 21.333-4.267 38.4-38.4 72.533-85.333 76.8v29.867c0 12.8-8.533 21.333-21.333 21.333s-21.333-8.533-21.333-21.333v-21.333c-46.933-8.533-85.333-42.667-85.333-85.333 0-38.4 29.867-68.267 85.333-81.067v-85.333c-25.6 4.267-42.667 21.333-42.667 38.4 0 12.8-12.8 21.333-21.333 21.333-12.8 0-21.333-12.8-21.333-21.333 4.267-38.4 38.4-72.533 85.333-76.8v-29.867c0-12.8 8.533-21.333 21.333-21.333s21.333 8.533 21.333 21.333v21.333c46.933 8.533 85.333 42.667 85.333 85.333 0 38.4-29.867 68.267-85.333 81.067zM448 512c0 17.067 17.067 34.133 42.667 38.4v-76.8c-29.867 8.533-42.667 21.333-42.667 38.4zM533.333 345.6v76.8c29.867-8.533 42.667-21.333 42.667-38.4s-17.067-34.133-42.667-38.4z" />
<glyph unicode="&#xe92b;" glyph-name="Networking-1" data-tags="Networking-1" d="M473.6 755.2v0c8.533-4.267 12.8-4.267 17.067-4.267 8.533 0 12.8 0 21.333 0s12.8 0 21.333 0c4.267 0 12.8 4.267 17.067 4.267 0 0 0 0 4.267 0 38.4 17.067 68.267 55.467 68.267 98.133-4.267 59.733-51.2 106.667-110.933 106.667s-106.667-46.933-106.667-106.667c0-46.933 29.867-85.333 68.267-98.133zM174.933 115.2v0c8.533-4.267 12.8-4.267 17.067-4.267 8.533 0 12.8 0 21.333 0s12.8 0 21.333 0c4.267 0 12.8 4.267 17.067 4.267 0 0 0 0 4.267 0 38.4 17.067 68.267 55.467 68.267 98.133-4.267 59.733-51.2 106.667-110.933 106.667s-106.667-46.933-106.667-106.667c0-46.933 29.867-85.333 68.267-98.133zM341.333 576h341.333c12.8 0 21.333 8.533 21.333 21.333 0 64-34.133 123.733-81.067 157.867-29.867-29.867-68.267-51.2-110.933-51.2s-81.067 21.333-110.933 51.2c-46.933-34.133-81.067-93.867-81.067-157.867 0-12.8 8.533-21.333 21.333-21.333zM704 213.333c0-46.933 29.867-85.333 68.267-98.133 0 0 0 0 4.267 0s8.533-4.267 17.067-4.267c8.533 0 12.8 0 21.333 0s12.8 0 21.333 0c4.267 0 12.8 4.267 17.067 4.267 0 0 0 0 4.267 0 38.4 17.067 68.267 55.467 68.267 98.133 0 59.733-46.933 106.667-106.667 106.667s-115.2-46.933-115.2-106.667zM921.6 115.2c-29.867-29.867-68.267-51.2-110.933-51.2s-81.067 21.333-110.933 51.2c-51.2-34.133-81.067-93.867-81.067-157.867 0-12.8 8.533-21.333 21.333-21.333h341.333c12.8 0 21.333 8.533 21.333 21.333 0 64-34.133 123.733-81.067 157.867zM324.267 115.2c-29.867-29.867-68.267-51.2-110.933-51.2s-81.067 21.333-110.933 51.2c-51.2-34.133-81.067-93.867-81.067-157.867 0-12.8 8.533-21.333 21.333-21.333h341.333c12.8 0 21.333 8.533 21.333 21.333 0 64-34.133 123.733-81.067 157.867zM213.333 362.667c12.8 0 21.333 8.533 21.333 21.333v320h64c12.8 0 21.333 8.533 21.333 21.333s-8.533 21.333-21.333 21.333h-85.333c-12.8 0-21.333-8.533-21.333-21.333v-341.333c0-12.8 8.533-21.333 21.333-21.333zM725.333 704h64v-320c0-12.8 8.533-21.333 21.333-21.333s21.333 8.533 21.333 21.333v341.333c0 12.8-8.533 21.333-21.333 21.333h-85.333c-12.8 0-21.333-8.533-21.333-21.333s8.533-21.333 21.333-21.333z" />
<glyph unicode="&#xe92c;" glyph-name="Networking-2" data-tags="Networking-2" d="M473.6 477.867c8.533-4.267 12.8-4.267 17.067-4.267 8.533 0 12.8 0 21.333 0s12.8 0 21.333 0c4.267 0 12.8 4.267 17.067 4.267 0 0 0 0 4.267 0 38.4 17.067 68.267 55.467 68.267 98.133 0 59.733-46.933 106.667-106.667 106.667s-110.933-46.933-110.933-106.667c0-46.933 29.867-85.333 68.267-98.133zM320 320c0-12.8 8.533-21.333 21.333-21.333h341.333c12.8 0 21.333 8.533 21.333 21.333 0 64-34.133 123.733-81.067 157.867-29.867-29.867-68.267-51.2-110.933-51.2s-81.067 21.333-110.933 51.2c-46.933-34.133-81.067-93.867-81.067-157.867zM230.4 426.667h68.267c12.8 0 21.333 8.533 21.333 21.333s-8.533 21.333-21.333 21.333h-68.267c-8.533 46.933-51.2 85.333-102.4 85.333-59.733 0-106.667-46.933-106.667-106.667s46.933-106.667 106.667-106.667c51.2 0 93.867 38.4 102.4 85.333zM128 384c-34.133 0-64 29.867-64 64s29.867 64 64 64 64-29.867 64-64-29.867-64-64-64zM768 256c-21.333 0-42.667-8.533-59.733-17.067l-34.133 34.133c-8.533 8.533-21.333 8.533-29.867 0s-8.533-21.333 0-29.867l34.133-34.133c-12.8-17.067-17.067-38.4-17.067-59.733 0-59.733 46.933-106.667 106.667-106.667s106.667 46.933 106.667 106.667-46.933 106.667-106.667 106.667zM768 85.333c-34.133 0-64 29.867-64 64s29.867 64 64 64 64-29.867 64-64-29.867-64-64-64zM674.133 622.933l34.133 34.133c17.067-8.533 38.4-17.067 59.733-17.067 59.733 0 106.667 46.933 106.667 106.667s-46.933 106.667-106.667 106.667c-59.733 0-106.667-46.933-106.667-106.667 0-21.333 4.267-42.667 17.067-59.733l-34.133-34.133c-8.533-8.533-8.533-21.333 0-29.867s21.333-8.533 29.867 0zM768 810.667c34.133 0 64-29.867 64-64s-29.867-64-64-64-64 29.867-64 64 29.867 64 64 64zM349.867 273.067l-34.133-34.133c-17.067 8.533-38.4 17.067-59.733 17.067-59.733 0-106.667-46.933-106.667-106.667s46.933-106.667 106.667-106.667c59.733 0 106.667 46.933 106.667 106.667 0 21.333-4.267 42.667-17.067 59.733l34.133 34.133c8.533 8.533 8.533 21.333 0 29.867s-21.333 8.533-29.867 0zM256 85.333c-34.133 0-64 29.867-64 64s29.867 64 64 64 64-29.867 64-64-29.867-64-64-64zM256 640c21.333 0 42.667 8.533 59.733 17.067l34.133-34.133c8.533-8.533 21.333-8.533 29.867 0s8.533 21.333 0 29.867l-34.133 34.133c12.8 17.067 17.067 38.4 17.067 59.733 0 59.733-46.933 106.667-106.667 106.667s-106.667-46.933-106.667-106.667c0-59.733 46.933-106.667 106.667-106.667zM256 810.667c34.133 0 64-29.867 64-64s-29.867-64-64-64-64 29.867-64 64 29.867 64 64 64zM896 554.667c-51.2 0-93.867-38.4-102.4-85.333h-68.267c-12.8 0-21.333-8.533-21.333-21.333s8.533-21.333 21.333-21.333h68.267c8.533-46.933 51.2-85.333 102.4-85.333 59.733 0 106.667 46.933 106.667 106.667s-46.933 106.667-106.667 106.667zM896 384c-34.133 0-64 29.867-64 64s29.867 64 64 64 64-29.867 64-64-29.867-64-64-64z" />
<glyph unicode="&#xe92d;" glyph-name="On-Sale2" data-tags="On-Sale 2" d="M896 533.333h-76.8l-200.533 200.533c-4.267 55.467-51.2 98.133-106.667 98.133s-102.4-42.667-106.667-98.133l-200.533-200.533h-76.8c-59.733 0-106.667-46.933-106.667-106.667v-256c0-59.733 46.933-106.667 106.667-106.667h768c59.733 0 106.667 46.933 106.667 106.667v256c0 59.733-46.933 106.667-106.667 106.667zM413.867 682.667c17.067-38.4 55.467-64 98.133-64s81.067 25.6 98.133 64l149.333-149.333h-494.933l149.333 149.333zM256 192c-34.133 0-59.733 25.6-64 59.733 0 12.8 8.533 21.333 21.333 21.333s21.333-8.533 21.333-21.333c0-8.533 8.533-17.067 21.333-17.067s21.333 8.533 21.333 21.333c0 8.533-4.267 17.067-25.6 21.333h-4.267c-46.933 12.8-55.467 42.667-55.467 64 0 34.133 29.867 64 64 64s59.733-25.6 64-59.733c0-12.8-8.533-21.333-21.333-21.333s-21.333 8.533-21.333 21.333c0 8.533-8.533 17.067-21.333 17.067s-21.333-8.533-21.333-21.333c0-8.533 4.267-17.067 25.6-21.333h4.267c46.933-12.8 55.467-42.667 55.467-64 0-34.133-29.867-64-64-64zM473.6 192h-4.267c-8.533 0-17.067 8.533-21.333 17.067l-4.267 25.6h-34.133l-8.533-25.6c-4.267-12.8-12.8-17.067-25.6-17.067-12.8 4.267-17.067 12.8-17.067 25.6l42.667 170.667c4.267 17.067 38.4 17.067 42.667 0l42.667-170.667c8.533-8.533 0-21.333-12.8-25.6zM640 192h-85.333c-12.8 0-21.333 8.533-21.333 21.333v170.667c0 12.8 8.533 21.333 21.333 21.333s21.333-8.533 21.333-21.333v-149.333h64c12.8 0 21.333-8.533 21.333-21.333s-8.533-21.333-21.333-21.333zM810.667 320c12.8 0 21.333-8.533 21.333-21.333s-8.533-21.333-21.333-21.333h-64v-42.667h64c12.8 0 21.333-8.533 21.333-21.333s-8.533-21.333-21.333-21.333h-85.333c-12.8 0-21.333 8.533-21.333 21.333v170.667c0 12.8 8.533 21.333 21.333 21.333h85.333c12.8 0 21.333-8.533 21.333-21.333s-8.533-21.333-21.333-21.333h-64v-42.667h64zM422.4 277.333h8.533l-4.267 17.067z" />
<glyph unicode="&#xe92e;" glyph-name="On-Sale" data-tags="On-Sale" d="M947.2 520.533c-17.067 12.8-34.133 25.6-38.4 34.133s8.533 34.133 12.8 51.2c17.067 29.867 29.867 59.733 17.067 89.6-17.067 25.6-51.2 29.867-85.333 34.133-17.067 0-42.667 4.267-51.2 12.8-4.267 4.267-8.533 29.867-8.533 46.933-4.267 34.133-8.533 68.267-34.133 85.333-21.333 12.8-55.467 0-89.6-12.8-17.067-8.533-34.133-12.8-51.2-12.8-8.533 4.267-21.333 21.333-34.133 38.4-21.333 25.6-42.667 55.467-72.533 55.467s-51.2-29.867-72.533-55.467c-12.8-21.333-25.6-38.4-38.4-42.667-12.8 0-29.867 8.533-46.933 17.067-29.867 12.8-64 25.6-89.6 12.8-25.6-17.067-29.867-51.2-34.133-85.333 0-17.067-4.267-42.667-12.8-51.2-4.267-4.267-29.867-8.533-46.933-8.533-34.133-4.267-68.267-8.533-85.333-34.133-12.8-29.867 0-59.733 12.8-89.6 8.533-17.067 17.067-38.4 12.8-51.2 0-8.533-17.067-21.333-34.133-34.133-25.6-21.333-55.467-42.667-55.467-72.533s29.867-55.467 55.467-72.533c17.067-12.8 34.133-25.6 38.4-34.133s-8.533-34.133-12.8-51.2c-17.067-29.867-29.867-59.733-17.067-89.6 17.067-25.6 51.2-29.867 85.333-34.133 17.067 0 42.667-4.267 51.2-12.8 4.267-4.267 8.533-29.867 8.533-46.933 4.267-34.133 8.533-68.267 34.133-85.333 21.333-12.8 55.467 0 89.6 12.8 17.067 8.533 34.133 17.067 51.2 12.8 8.533-4.267 21.333-21.333 34.133-38.4 21.333-25.6 42.667-55.467 72.533-55.467s51.2 29.867 72.533 55.467c12.8 17.067 25.6 34.133 38.4 38.4 12.8 0 29.867-8.533 46.933-17.067 29.867-12.8 64-25.6 89.6-12.8 25.6 17.067 29.867 51.2 34.133 85.333 0 17.067 4.267 42.667 12.8 51.2s29.867 8.533 51.2 12.8c34.133 4.267 68.267 8.533 85.333 34.133s0 59.733-12.8 89.6c-8.533 17.067-17.067 38.4-12.8 51.2 4.267 8.533 21.333 21.333 38.4 34.133 25.6 21.333 55.467 42.667 55.467 72.533s-38.4 51.2-64 72.533zM256 341.333c-34.133 0-59.733 25.6-64 59.733 0 12.8 8.533 21.333 21.333 21.333s21.333-8.533 21.333-21.333 8.533-21.333 21.333-21.333 21.333 8.533 21.333 21.333c0 8.533-4.267 17.067-25.6 21.333l4.267 25.6-4.267-21.333c-46.933 12.8-55.467 42.667-55.467 64 0 34.133 29.867 64 64 64s59.733-25.6 64-59.733c0-12.8-8.533-21.333-21.333-21.333s-21.333 8.533-21.333 21.333-8.533 21.333-21.333 21.333-21.333-8.533-21.333-21.333c0-8.533 4.267-17.067 25.6-21.333h4.267c46.933-12.8 55.467-42.667 55.467-64-4.267-38.4-34.133-68.267-68.267-68.267zM473.6 341.333h-4.267c-8.533 0-17.067 8.533-21.333 17.067l-8.533 25.6h-29.867l-8.533-25.6c-4.267-12.8-12.8-17.067-25.6-17.067-12.8 4.267-17.067 12.8-17.067 25.6l42.667 170.667c4.267 17.067 38.4 17.067 42.667 0l42.667-170.667c8.533-8.533 0-21.333-12.8-25.6zM640 341.333h-85.333c-12.8 0-21.333 8.533-21.333 21.333v170.667c0 12.8 8.533 21.333 21.333 21.333s21.333-8.533 21.333-21.333v-149.333h64c12.8 0 21.333-8.533 21.333-21.333s-8.533-21.333-21.333-21.333zM810.667 469.333c12.8 0 21.333-8.533 21.333-21.333s-8.533-21.333-21.333-21.333h-64v-42.667h64c12.8 0 21.333-8.533 21.333-21.333s-8.533-21.333-21.333-21.333h-85.333c-12.8 0-21.333 8.533-21.333 21.333v170.667c0 12.8 8.533 21.333 21.333 21.333h85.333c12.8 0 21.333-8.533 21.333-21.333s-8.533-21.333-21.333-21.333h-64v-42.667h64zM422.4 426.667h8.533l-4.267 17.067z" />
<glyph unicode="&#xe92f;" glyph-name="Online-shopping1" data-tags="Online-shopping 1" d="M832 554.667c8.533 4.267 29.867 46.933 38.4 128h-76.8c8.533-81.067 29.867-123.733 38.4-128zM776.533 930.133c-59.733-17.067-102.4-64-123.733-119.467h98.133c4.267 46.933 12.8 85.333 25.6 119.467zM832 938.667v0c-8.533-4.267-29.867-46.933-38.4-128h76.8c-8.533 81.067-29.867 123.733-38.4 128zM1011.2 810.667c-21.333 55.467-68.267 102.4-123.733 119.467 12.8-29.867 21.333-72.533 25.6-119.467h98.133zM652.8 682.667c21.333-55.467 68.267-102.4 123.733-119.467-12.8 29.867-21.333 72.533-25.6 119.467h-98.133zM874.667 725.333c0 8.533 0 12.8 0 21.333s0 12.8 0 21.333h-85.333c0-8.533 0-12.8 0-21.333s0-12.8 0-21.333h85.333zM896 64c0-58.91-47.756-106.667-106.667-106.667s-106.667 47.756-106.667 106.667c0 58.91 47.756 106.667 106.667 106.667s106.667-47.756 106.667-106.667zM887.467 563.2c59.733 17.067 102.4 64 123.733 119.467h-98.133c-4.267-46.933-12.8-85.333-25.6-119.467zM1019.733 768h-106.667c0-8.533 0-12.8 0-21.333s0-12.8 0-21.333h106.667c4.267 8.533 4.267 12.8 4.267 21.333s0 12.8-4.267 21.333zM746.667 725.333c0 8.533 0 12.8 0 21.333s0 12.8 0 21.333h-106.667c0-8.533 0-12.8 0-21.333s0-12.8 4.267-21.333h102.4zM925.867 533.333c-29.867-12.8-64-21.333-93.867-21.333-128 0-234.667 106.667-234.667 234.667 0 12.8-8.533 21.333-21.333 21.333h-384l-21.333 110.933c0 8.533-12.8 17.067-21.333 17.067h-128c-12.8 0-21.333-8.533-21.333-21.333s8.533-21.333 21.333-21.333h110.933l102.4-520.533c12.8-68.267 76.8-119.467 145.067-119.467h490.667c12.8 0 21.333 8.533 21.333 21.333s-8.533 21.333-21.333 21.333h-486.4c-34.133 0-68.267 17.067-85.333 46.933l622.933 85.333c8.533 0 17.067 8.533 17.067 17.067l17.067 106.667c0 8.533 0 17.067-8.533 21.333-4.267 0-12.8 0-21.333 0zM469.333 64c0-58.91-47.756-106.667-106.667-106.667s-106.667 47.756-106.667 106.667c0 58.91 47.756 106.667 106.667 106.667s106.667-47.756 106.667-106.667z" />
<glyph unicode="&#xe930;" glyph-name="Online-Store" data-tags="Online-Store" d="M597.333 388.267l-25.6-162.133-38.4 132.267c-4.267 17.067-34.133 17.067-42.667 0l-38.4-132.267-25.6 162.133c0 12.8-12.8 21.333-25.6 17.067-12.8 0-21.333-12.8-17.067-25.6l42.667-256c0-8.533 8.533-17.067 21.333-17.067s17.067 4.267 21.333 17.067l42.667 153.6 42.667-153.6c4.267-8.533 12.8-17.067 21.333-17.067v0c8.533 0 17.067 8.533 21.333 17.067l42.667 256c0 12.8-4.267 21.333-17.067 25.6-12.8 0-21.333-4.267-25.6-17.067zM896 388.267l-25.6-162.133-38.4 132.267c-4.267 17.067-34.133 17.067-42.667 0l-38.4-132.267-25.6 162.133c0 12.8-12.8 21.333-25.6 17.067-12.8 0-21.333-12.8-17.067-25.6l42.667-256c0-8.533 8.533-17.067 21.333-17.067 8.533 0 17.067 4.267 21.333 17.067l42.667 153.6 42.667-153.6c4.267-8.533 12.8-17.067 21.333-17.067v0c8.533 0 17.067 8.533 21.333 17.067l42.667 256c0 12.8-4.267 21.333-17.067 25.6-12.8 0-21.333-4.267-25.6-17.067zM170.667 448c34.133 0 68.267 17.067 85.333 42.667 21.333-25.6 51.2-42.667 85.333-42.667s64 17.067 85.333 42.667c21.333-25.6 51.2-42.667 85.333-42.667s64 17.067 85.333 42.667c21.333-25.6 51.2-42.667 85.333-42.667s64 17.067 85.333 42.667c21.333-25.6 51.2-42.667 85.333-42.667 59.733 0 106.667 46.933 106.667 106.667 0 4.267 0 8.533-4.267 12.8l-123.733 209.067v76.8c0 59.733-46.933 106.667-106.667 106.667h-426.667c-59.733 0-106.667-46.933-106.667-106.667v-81.067l-123.733-204.8c0-4.267-4.267-8.533-4.267-12.8 0-59.733 46.933-106.667 106.667-106.667zM896 64h-768c-59.733 0-106.667-46.933-106.667-106.667 0-12.8 8.533-21.333 21.333-21.333h938.667c12.8 0 21.333 8.533 21.333 21.333 0 59.733-46.933 106.667-106.667 106.667zM298.667 388.267l-25.6-162.133-38.4 132.267c-4.267 17.067-34.133 17.067-42.667 0l-38.4-132.267-25.6 162.133c0 12.8-12.8 21.333-25.6 17.067-12.8 0-21.333-12.8-17.067-25.6l42.667-256c0-8.533 8.533-17.067 21.333-17.067s17.067 4.267 21.333 17.067l42.667 153.6 42.667-153.6c4.267-12.8 12.8-17.067 21.333-17.067v0c12.8 0 21.333 8.533 21.333 17.067l42.667 256c0 12.8-4.267 21.333-17.067 25.6-12.8 0-21.333-4.267-25.6-17.067z" />
<glyph unicode="&#xe931;" glyph-name="Open-box" data-tags="Open-box" d="M392.533 550.4l-221.867-29.867c-12.8 0-17.067-8.533-17.067-21.333v-273.067c0-8.533 4.267-17.067 12.8-21.333l328.533-123.733v571.733l-59.733-76.8c-12.8-12.8-25.6-21.333-42.667-25.6zM460.8 281.6c-4.267-4.267-8.533-4.267-17.067-4.267s-12.8 0-17.067 4.267l-25.6 25.6v-76.8c0-12.8-8.533-21.333-21.333-21.333s-21.333 8.533-21.333 21.333v76.8l-25.6-25.6c-8.533-8.533-21.333-8.533-29.867 0s-8.533 21.333 0 29.867l64 64c0 0 4.267 4.267 8.533 4.267 4.267 4.267 12.8 4.267 17.067 0 4.267 0 4.267-4.267 8.533-4.267l64-64c4.267-8.533 4.267-21.333-4.267-29.867zM857.6 524.8l-221.867 29.867c-17.067 4.267-34.133 12.8-42.667 25.6l-55.467 72.533v-563.2l328.533 123.733c8.533 4.267 12.8 12.8 12.8 21.333v273.067c-4.267 4.267-12.8 17.067-21.333 17.067zM712.533 256l-106.667-42.667c-4.267 0-4.267 0-8.533 0-8.533 0-17.067 4.267-21.333 12.8-4.267 12.8 0 21.333 12.8 25.6l106.667 42.667c12.8 4.267 21.333 0 29.867-12.8 4.267-8.533-4.267-21.333-12.8-25.6zM994.133 588.8l-123.733 166.4c-4.267 4.267-8.533 8.533-12.8 8.533l-341.333 42.667c0 0 0 0-4.267 0 0 0 0 0-4.267 0l-341.333-42.667c-4.267 0-12.8-4.267-12.8-8.533l-128-170.667c-4.267-8.533-4.267-17.067 0-25.6 0-4.267 8.533-8.533 17.067-8.533 0 0 0 0 4.267 0l341.333 42.667c4.267 0 12.8 4.267 12.8 8.533l110.933 149.333 110.933-149.333c4.267-4.267 8.533-8.533 12.8-8.533l341.333-42.667c0 0 0 0 4.267 0v0c12.8 0 21.333 8.533 21.333 21.333 0 8.533-4.267 12.8-8.533 17.067z" />
<glyph unicode="&#xe932;" glyph-name="Pound-Bag" data-tags="Pound-Bag" d="M981.333 682.667h-192v106.667c0 81.067-68.267 149.333-149.333 149.333h-256c-81.067 0-149.333-68.267-149.333-149.333v-106.667h-192c-12.8 0-21.333-8.533-21.333-21.333v-682.667c0-12.8 8.533-21.333 21.333-21.333h938.667c12.8 0 21.333 8.533 21.333 21.333v682.667c0 12.8-8.533 21.333-21.333 21.333zM277.333 789.333c0 59.733 46.933 106.667 106.667 106.667h256c59.733 0 106.667-46.933 106.667-106.667v-213.333c0-12.8-8.533-21.333-21.333-21.333s-21.333 8.533-21.333 21.333v106.667h-384v-106.667c0-12.8-8.533-21.333-21.333-21.333s-21.333 8.533-21.333 21.333v213.333zM512 42.667c-153.6 0-277.333 123.733-277.333 277.333s123.733 277.333 277.333 277.333 277.333-123.733 277.333-277.333-123.733-277.333-277.333-277.333zM512 554.667c-128 0-234.667-106.667-234.667-234.667s106.667-234.667 234.667-234.667 234.667 106.667 234.667 234.667-106.667 234.667-234.667 234.667zM597.333 170.667h-170.667c-8.533 0-12.8 4.267-17.067 8.533s-4.267 12.8-4.267 21.333l34.133 98.133h-55.467c-12.8 0-21.333 8.533-21.333 21.333s8.533 21.333 21.333 21.333h46.933l-21.333 29.867c-4.267 4.267-4.267 8.533-4.267 12.8 0 46.933 46.933 85.333 106.667 85.333 68.267 0 102.4-21.333 106.667-64 0-12.8-8.533-21.333-21.333-21.333s-21.333 8.533-21.333 21.333c0 17.067-21.333 21.333-64 21.333-29.867 0-59.733-17.067-64-38.4l34.133-46.933h29.867c12.8 0 21.333-8.533 21.333-21.333s-8.533-21.333-21.333-21.333h-25.6l-29.867-85.333h140.8c12.8 0 21.333-8.533 21.333-21.333s-8.533-21.333-21.333-21.333z" />
<glyph unicode="&#xe933;" glyph-name="Pound-Card" data-tags="Pound-Card" d="M213.333 469.333c-106.667 0-192-85.333-192-192s85.333-192 192-192 192 85.333 192 192-85.333 192-192 192zM298.667 128h-170.667c-8.533 0-12.8 4.267-17.067 8.533s-4.267 12.8-4.267 21.333l34.133 98.133h-55.467c-12.8 0-21.333 8.533-21.333 21.333s8.533 21.333 21.333 21.333h46.933l-21.333 29.867c-4.267 4.267-4.267 8.533-4.267 12.8 0 46.933 46.933 85.333 106.667 85.333 68.267 0 102.4-21.333 106.667-64 0-12.8-8.533-21.333-21.333-21.333s-21.333 8.533-21.333 21.333c0 17.067-21.333 21.333-64 21.333-29.867 0-59.733-17.067-64-38.4l34.133-46.933h29.867c12.8 0 21.333-8.533 21.333-21.333s-8.533-21.333-21.333-21.333h-25.6l-29.867-85.333h140.8c12.8 0 21.333-8.533 21.333-21.333s-8.533-21.333-21.333-21.333zM789.333 512c-12.8 0-21.333-4.267-29.867-12.8-4.267-4.267-8.533-8.533-8.533-12.8v0c-4.267-4.267-4.267-12.8-4.267-17.067s0-12.8 4.267-17.067v0c4.267-4.267 4.267-8.533 8.533-12.8 8.533-8.533 17.067-12.8 29.867-12.8 25.6 0 42.667 17.067 42.667 42.667s-17.067 42.667-42.667 42.667zM896 810.667h-597.333c-59.733 0-106.667-46.933-106.667-106.667v-192c8.533 0 12.8 0 21.333 0 128 0 234.667-106.667 234.667-234.667 0-8.533 0-12.8 0-21.333h448c59.733 0 106.667 46.933 106.667 106.667v341.333c0 59.733-46.933 106.667-106.667 106.667zM725.333 682.667h42.667c12.8 0 21.333-8.533 21.333-21.333s-8.533-21.333-21.333-21.333h-42.667c-12.8 0-21.333 8.533-21.333 21.333s8.533 21.333 21.333 21.333zM469.333 682.667h42.667c12.8 0 21.333-8.533 21.333-21.333s-8.533-21.333-21.333-21.333h-42.667c-12.8 0-21.333 8.533-21.333 21.333s8.533 21.333 21.333 21.333zM320 661.333c0 12.8 8.533 21.333 21.333 21.333h42.667c12.8 0 21.333-8.533 21.333-21.333s-8.533-21.333-21.333-21.333h-42.667c-12.8 0-21.333 8.533-21.333 21.333zM554.667 384h-42.667c-12.8 0-21.333 8.533-21.333 21.333s8.533 21.333 21.333 21.333h42.667c12.8 0 21.333-8.533 21.333-21.333s-8.533-21.333-21.333-21.333zM554.667 512h-170.667c-12.8 0-21.333 8.533-21.333 21.333s8.533 21.333 21.333 21.333h170.667c12.8 0 21.333-8.533 21.333-21.333s-8.533-21.333-21.333-21.333zM576 661.333c0 12.8 8.533 21.333 21.333 21.333h42.667c12.8 0 21.333-8.533 21.333-21.333s-8.533-21.333-21.333-21.333h-42.667c-12.8 0-21.333 8.533-21.333 21.333zM789.333 384c-17.067 0-29.867 4.267-42.667 12.8-12.8-8.533-25.6-12.8-42.667-12.8-46.933 0-85.333 38.4-85.333 85.333s38.4 85.333 85.333 85.333c17.067 0 29.867-4.267 42.667-12.8 12.8 8.533 25.6 12.8 42.667 12.8 46.933 0 85.333-38.4 85.333-85.333s-38.4-85.333-85.333-85.333zM708.267 494.933c0 4.267 4.267 8.533 4.267 17.067v0c-4.267 0-8.533 0-12.8 0-25.6 0-42.667-17.067-42.667-42.667s25.6-46.933 55.467-42.667v0c-4.267 4.267-4.267 8.533-4.267 17.067v4.267c0 8.533-4.267 12.8-4.267 21.333s0 12.8 4.267 25.6c0-4.267 0-4.267 0 0z" />
</font>
</defs>
</svg>
